<?xml version="1.0" encoding="UTF-8" standalone="no"?>
<svg
   version="1.1"
   id="svg2"
   xml:space="preserve"
   width="671"
   height="268"
   viewBox="0 0 671 268"
   sodipodi:docname="divider-left.svg"
   inkscape:version="1.2.1 (ef4d3fba62, 2022-07-19, custom)"
   xmlns:inkscape="http://www.inkscape.org/namespaces/inkscape"
   xmlns:sodipodi="http://sodipodi.sourceforge.net/DTD/sodipodi-0.dtd"
   xmlns="http://www.w3.org/2000/svg"
   xmlns:svg="http://www.w3.org/2000/svg"
   xmlns:rdf="http://www.w3.org/1999/02/22-rdf-syntax-ns#"
   xmlns:cc="http://creativecommons.org/ns#"
   xmlns:dc="http://purl.org/dc/elements/1.1/"><metadata
     id="metadata8"><rdf:RDF><cc:Work
         rdf:about=""><dc:format>image/svg+xml</dc:format><dc:type
           rdf:resource="http://purl.org/dc/dcmitype/StillImage" /></cc:Work></rdf:RDF></metadata><defs
     id="defs6"><clipPath
       clipPathUnits="userSpaceOnUse"
       id="clipPath183"><rect
         style="fill:none;stroke:#ff0000;stroke-width:7.5;stop-color:#000000"
         id="rect185"
         width="5151.4053"
         height="3071.8442"
         x="-120.88134"
         y="-2494.8403"
         transform="scale(1,-1)" /></clipPath></defs><sodipodi:namedview
     pagecolor="#ffffff"
     bordercolor="#666666"
     borderopacity="1"
     objecttolerance="10"
     gridtolerance="10"
     guidetolerance="10"
     inkscape:pageopacity="0"
     inkscape:pageshadow="2"
     inkscape:window-width="2560"
     inkscape:window-height="1377"
     id="namedview4"
     inkscape:pagecheckerboard="0"
     showgrid="false"
     inkscape:zoom="1.0361446"
     inkscape:cx="653.38371"
     inkscape:cy="134.15116"
     inkscape:window-x="1080"
     inkscape:window-y="27"
     inkscape:window-maximized="1"
     inkscape:current-layer="g10"
     inkscape:showpageshadow="2"
     inkscape:deskcolor="#d1d1d1" /><g
     id="g10"
     inkscape:groupmode="layer"
     inkscape:label="ink_ext_XXXXXX"
     transform="matrix(1.3333333,0,0,-1.3333333,0,268)"><g
       id="g12"
       transform="scale(0.1)"
       style="fill:#332b12;fill-opacity:0.8"
       clip-path="url(#clipPath183)"><path
         d="m 5724.69,1047.5 35.47,0.66 c 0.31,0.79 0.74,1.57 1.17,2.35 21.64,41.64 43.59,108.55 74.14,150.11 -85.04,235.55 -16.13,525.83 197.15,685 34.02,25.32 89.57,63.25 146.13,88.01 43.32,18.95 87.34,29.77 124.73,26.25 7.69,-0.7 16.13,-3.2 24.14,-9.26 5.35,-3.98 13.79,-13.35 19.76,-28.63 12.23,-30.97 26.92,-107.93 28.95,-117.81 32.26,-151.25 5.51,-287.77 -94.06,-413.09 -51.49,-64.84 -123.32,-108 -196.14,-148.67 -63.98,-35.78 -128.83,-69.26 -175.19,-119.8 -24.57,-26.72 -41.6,-73.64 -57.74,-112.66 279.14,5.51 558.28,12.31 836.29,14.22 93.32,0.62 186.68,0.51 279.85,-0.16 18.78,59.53 41.6,144.53 77.5,199.89 -74.3,225.82 61.64,507.46 260.82,642.07 37.38,25.19 158.32,86.21 248.79,97.85 52.77,6.79 96.52,-3.71 121.95,-30.9 10.62,-11.33 18.9,-36.13 15.27,-70.55 -9.14,-83.86 -75.58,-252.34 -95.39,-283.04 -60.31,-93.25 -146.4,-154.34 -236.09,-211.06 -81.57,-51.6 -166.02,-99.26 -231.45,-170.35 -36.36,-39.57 -56.4,-115.43 -73.44,-174.65 335.43,-3.48 670.55,-12.93 1006.1,-18.4 31.4,52.23 54.37,113.24 87.81,165 -72.42,211.49 81.29,455.43 254.88,582.11 69.61,50.82 155.82,83.87 242.5,100 6.96,1.29 51.45,8.09 61.33,6.96 24.14,-2.66 33.01,-17.54 36.21,-25.67 31.14,-75.94 10.2,-175.98 -40.11,-274.22 -70.67,-138.01 -196.41,-272.65 -281.64,-325.74 -30.94,-19.22 -88.95,-37.5 -137.82,-58.63 -11.05,-4.77 -21.64,-9.42 -30.82,-14.38 -5.08,-7.42 -12.65,-12.73 -21.09,-15.62 -0.59,-0.71 -1.13,-1.41 -1.6,-2.15 -30.24,-41.95 -51.02,-92.27 -75,-139.1 200.04,-2.74 399.96,-3.79 600.15,-0.94 1.6,1.76 3.36,3.44 5.24,4.96 242.65,194.22 541.13,341.45 870.31,243.59 55.39,-16.44 198.01,-71.56 270.55,-141.48 39.84,-38.32 59.45,-81.56 50,-124.96 -5.51,-25.508 -21.06,-48.79 -46.06,-68.989 -29.53,-23.781 -73.59,-43.82 -126.52,-59.41 -187.23,-55.313 -489.65,-58.711 -550.12,-49.371 -139.57,21.68 -275.08,57.461 -403.32,112.93 -3.36,1.402 -6.4,3.199 -9.14,5.269 -223.63,-4.019 -446.95,-3.008 -670.27,0.121 6.56,-28.441 13.24,-57.461 24.14,-83.211 7.26,-3.551 30.54,-14.57 48.28,-20.929 42.3,-15.2 90.16,-29.848 106.87,-38.872 103.79,-55.699 175.9,-140.937 222.43,-241.796 63.82,-138.364 70.23,-283.364 30.23,-428.243 -2.89,-10.16 -19.45,-80.5895 -36.64,-110.3082 -12.07,-21.1406 -29.49,-30.1211 -41.56,-32.23049 -38.4,-6.64062 -82.89,2.41799 -126.33,20.85939 -55.7,23.6719 -110.08,62.1094 -143.24,88.1993 -233.64,183.359 -258.05,483.641 -136.06,727.109 -16.72,36.684 -25.31,80.313 -35.19,120.782 -335.55,5.468 -670.98,14.929 -1006.53,18.32 2.46,-24.719 5.39,-54.18 10.04,-80.66 2.31,-13.239 5.08,-25.59 8.56,-35.782 1.48,-3.789 4.1,-9.097 4.8,-10.429 50.31,-41.879 105.12,-56.059 153.83,-80.348 60.04,-29.922 113.71,-71.101 147.73,-169.57 47.54,-137.071 9.3,-290.551 -47.85,-419.961 -11.48,-26.211 -25.43,-67.891 -47.54,-96.4103 -22.54,-29.3008 -52.77,-46.7188 -90.74,-44.1406 -96.21,6.4804 -170.08,55.6989 -231.72,120.7809 -191.21,201.879 -118.79,467.5 36.17,663.051 -4.92,10.348 -9.14,22.461 -12.34,35.969 -8.71,36.332 -12.66,84.609 -16.29,118.25 -93.16,0.66 -186.52,0.781 -279.72,0.148 -279.3,-1.906 -559.58,-8.707 -840.2,-14.218 6.56,-31.129 14.53,-66.872 23.55,-94.489 2.93,-8.75 8.17,-19.922 10.32,-24.449 38.24,-18.832 70.97,-26.723 99.76,-36.801 56.84,-19.883 102.93,-45.121 145.39,-139.922 32.54,-72.769 53.21,-150.589 56.1,-229.531 2.93,-78.789 -35.74,-244.058 -109.92,-335.508 -35.75,-44.0583 -79.97,-71.6794 -129.11,-74.9216 -33.55,-2.1875 -70.5,6.5625 -109.76,32.3399 C 5698.95,158.441 5635.27,306.84 5637.3,457.07 c 1.88,138.2 59.77,277.27 164.46,372.032 -3.36,7.457 -6.72,15.937 -9.77,25.199 -11.17,34.14 -20.62,80.66 -27.89,115.578 -261.72,-4.84 -1308.2,-4.84 -1569.92,0 -7.27,-34.918 -16.88,-81.438 -28.05,-115.578 -3.04,-9.262 -6.25,-17.742 -9.61,-25.199 104.53,-94.762 162.43,-233.832 164.3,-372.032 2.19,-150.23 -61.64,-298.629 -199.02,-388.8317 -39.26,-25.7774 -76.21,-34.5274 -109.77,-32.3399 -49.02,3.2422 -93.36,30.8633 -129.14,74.9216 -74.14,91.45 -112.81,256.719 -109.77,335.508 2.93,78.942 23.56,156.762 56.14,229.531 42.3,94.801 88.4,120.039 145.39,139.922 28.79,10.078 61.48,17.969 99.73,36.801 2.18,4.527 7.42,15.699 10.19,24.449 9.14,27.617 16.99,63.36 23.55,94.489 -280.46,5.511 -560.78,12.312 -840.07,14.218 -93.32,0.633 -186.53,0.512 -279.85,-0.148 -3.63,-33.641 -7.42,-81.918 -16.13,-118.25 -3.36,-13.508 -7.58,-25.621 -12.54,-35.969 155,-195.551 227.42,-461.172 36.37,-663.051 -61.64,-65.082 -135.67,-114.3005 -231.76,-120.7809 -38.09,-2.5782 -68.16,14.8398 -90.86,44.1406 -21.95,28.5193 -35.9,70.1993 -47.54,96.4103 -57.15,129.41 -95.39,282.89 -47.85,419.961 34.18,98.469 87.7,139.648 147.73,169.57 48.83,24.289 103.68,38.469 153.83,80.348 0.71,1.332 3.48,6.64 4.81,10.429 3.63,10.192 6.25,22.543 8.55,35.782 4.65,26.48 7.58,55.941 10.04,80.66 -335.55,-3.391 -670.82,-12.852 -1006.37,-18.32 -9.88,-40.469 -18.47,-84.098 -35.35,-120.782 122.15,-243.468 97.7,-543.75 -135.93,-727.109 -33.29,-26.0899 -87.5,-64.5274 -143.36,-88.1993 -43.32,-18.4414 -87.93,-27.50001 -126.33,-20.85939 -12.07,2.10939 -29.38,11.08989 -41.56,32.23049 -17.19,29.7187 -33.75,100.1482 -36.53,110.3082 -40.12,144.879 -33.71,289.879 30.28,428.243 46.52,100.859 118.63,186.097 222.26,241.796 16.88,9.024 64.57,23.672 107.03,38.872 17.58,6.359 40.86,17.378 48.24,20.929 10.94,25.75 17.62,54.77 24.03,83.211 -223.21,-3.129 -446.64,-4.14 -670.28,-0.121 -2.73,-2.07 -5.66,-3.867 -8.98,-5.269 C 1001.76,904.301 866.09,868.52 726.52,846.84 666.172,837.5 363.75,840.898 176.449,896.211 123.59,911.801 79.4883,931.84 50,955.621 24.9609,975.82 9.37891,999.102 3.82813,1024.61 c -9.37891,43.4 10.23047,86.64 49.99997,124.96 72.5429,69.92 215.2309,125.04 270.6209,141.48 329.18,97.86 627.742,-49.37 870.241,-243.59 2.03,-1.52 3.79,-3.2 5.23,-4.96 200.2,-2.85 400.24,-1.8 600.16,0.94 -23.83,46.83 -44.77,97.15 -74.88,139.1 -0.59,0.74 -1.18,1.44 -1.72,2.15 -8.44,2.89 -15.86,8.2 -21.1,15.62 -9.02,4.96 -19.76,9.61 -30.82,14.38 -48.86,21.13 -106.87,39.41 -137.69,58.63 -85.35,53.09 -210.94,187.73 -281.6,325.74 -50.32,98.24 -71.41,198.28 -40.28,274.22 3.32,8.13 12.07,23.01 36.21,25.67 10,1.13 54.5,-5.67 61.33,-6.96 86.8,-16.13 172.89,-49.18 242.66,-100 173.59,-126.68 327.15,-370.62 254.88,-582.11 33.28,-51.76 56.25,-112.77 87.81,-165 335.39,5.47 670.67,14.92 1006.1,18.4 -17.03,59.22 -37.23,135.08 -73.6,174.65 -65.27,71.09 -149.88,118.75 -231.44,170.35 -89.57,56.72 -175.78,117.81 -235.98,211.06 -19.92,30.7 -86.37,199.18 -95.35,283.04 -3.79,34.42 4.65,59.22 15.23,70.55 25.32,27.19 69.22,37.69 121.84,30.9 90.59,-11.64 211.56,-72.66 248.79,-97.85 199.3,-134.61 335.23,-416.25 260.82,-642.07 36.05,-55.36 58.71,-140.36 77.62,-199.89 93.2,0.67 186.4,0.78 279.72,0.16 278.13,-1.91 557.15,-8.71 836.45,-14.22 -16.29,39.02 -33.17,85.94 -57.74,112.66 -46.52,50.54 -111.36,84.02 -175.35,119.8 -72.69,40.67 -144.49,83.83 -196.13,148.67 -99.57,125.32 -126.17,261.84 -94.06,413.09 2.18,9.88 16.87,86.84 28.94,117.81 6.1,15.28 14.53,24.65 19.77,28.63 8.16,6.06 16.44,8.56 24.14,9.26 37.38,3.52 81.56,-7.3 124.73,-26.25 56.56,-24.76 112.26,-62.69 146.13,-88.01 213.28,-159.17 282.19,-449.45 197.15,-685 30.66,-41.56 52.61,-108.47 74.29,-150.11 0.43,-0.78 0.71,-1.56 1.17,-2.35 l 35.47,-0.66 c 45.79,0.2 1406.76,-1.52 1491.1,0 z M 8207.34,782.301 c 32.7,-11.09 65.12,-21.051 77.93,-27.891 87.5,-47.031 147.54,-119.609 186.96,-204.762 56.25,-122.148 61.36,-250.238 26.01,-378.168 -1.72,-6.128 -8.71,-36.992 -17.73,-64.57 -2.31,-6.711 -5.82,-15.0311 -8.56,-21.2108 -19.06,0.5117 -39.57,7.2696 -59.92,15.9808 -48.28,20.468 -94.92,54.101 -123.71,76.64 -176.52,138.481 -212.58,353.95 -149.92,547.071 20.94,-55.231 42.89,-110.121 64.72,-165.082 7.97,-20.348 32.54,-30.821 54.5,-23.399 22.11,7.43 33.59,29.969 25.47,50.32 -25.75,64.918 -51.76,129.649 -75.75,195.071 z m -6456.4,0 C 1718.09,771.211 1685.66,761.25 1673.01,754.41 1585.35,707.379 1525.31,634.801 1486.05,549.648 1429.65,427.5 1424.53,299.41 1460,171.48 c 1.6,-6.128 8.59,-36.992 17.77,-64.57 2.15,-6.711 5.67,-15.0311 8.4,-21.2108 19.06,0.5117 39.57,7.2696 60.08,15.9808 48.24,20.468 94.92,54.101 123.71,76.64 176.37,138.481 212.42,353.95 149.77,547.071 -20.82,-55.231 -42.78,-110.121 -64.57,-165.082 -8.13,-20.348 -32.58,-30.821 -54.65,-23.399 -22.11,7.43 -33.48,29.969 -25.47,50.32 25.9,64.918 51.76,129.649 75.9,195.071 z m 4147.77,-21.789 c 10.74,-3.75 21.09,-7.071 30.98,-10.242 49.41,-15.821 86.21,-27.649 120.51,-104.29 28.67,-64.179 47.1,-132.742 49.72,-202.39 2.62,-67.07 -29.8,-207.969 -93.04,-285.82 -19.18,-23.711 -40.43,-41.872 -66.72,-43.629 -16.88,-1.09 -34.77,5.078 -54.38,17.968 -114.14,74.961 -165.04,199.141 -163.28,323.942 1.33,96.41 33.87,193.597 94.65,269.89 6.56,-53.089 14.84,-106.14 26.6,-158.132 4.65,-21.168 27.19,-34.84 50.31,-30.469 22.97,4.379 37.82,25.16 33.01,46.332 -12.93,58.09 -21.68,117.539 -28.36,176.84 z m -1839.3,0 c -10.78,-3.75 -20.93,-7.071 -30.97,-10.242 -49.3,-15.821 -86.21,-27.649 -120.51,-104.29 -28.67,-64.179 -47.11,-132.742 -49.73,-202.39 -2.5,-67.07 29.92,-207.969 93.05,-285.82 19.18,-23.711 40.39,-41.872 66.87,-43.629 16.72,-1.09 34.61,5.078 54.22,17.968 114.14,74.961 165.04,199.141 163.28,323.942 -1.32,96.41 -33.86,193.597 -94.64,269.89 -6.57,-53.089 -14.85,-106.14 -26.45,-158.132 -4.8,-21.168 -27.34,-34.84 -50.31,-30.469 -23.13,4.379 -37.97,25.16 -33.17,46.332 13.09,58.09 21.68,117.539 28.36,176.84 z m 3034.26,-7.192 c 22.97,-11.64 46.06,-21.211 68.6,-31.019 55.39,-24.102 106.44,-50.5 136.83,-138.121 41.56,-119.77 4.34,-253.481 -45.66,-366.559 -8.28,-18.832 -17.31,-47.191 -31.1,-70.32 -3.94,-6.442 -8,-12.422 -13.08,-17.071 -2.62,-2.339 -5.12,-4.718 -8.87,-4.492 -72.85,4.922 -127.23,44.852 -173.91,94.141 -140.15,148.133 -107.14,335.902 -10.74,491.84 10.59,-49.379 21.21,-98.707 33.01,-147.848 5.08,-21.141 27.73,-34.531 50.74,-29.922 22.97,4.68 37.5,25.621 32.54,46.75 -13.79,57.352 -26.01,115 -38.36,172.621 z m -4229.06,0 c -23.13,-11.64 -46.25,-21.211 -68.63,-31.019 -55.51,-24.102 -106.57,-50.5 -136.96,-138.121 -41.44,-119.77 -4.22,-253.481 45.67,-366.559 8.28,-18.832 17.3,-47.191 31.25,-70.32 3.79,-6.442 8.01,-12.422 12.93,-17.071 2.61,-2.339 5.23,-4.718 9.02,-4.492 72.85,4.922 127.07,44.852 173.75,94.141 140.31,148.133 107.31,335.902 10.9,491.84 -10.63,-49.379 -21.37,-98.707 -33.16,-147.848 -4.93,-21.141 -27.74,-34.531 -50.75,-29.922 -22.97,4.68 -37.5,25.621 -32.42,46.75 13.67,57.352 26.06,115 38.4,172.621 z m 6050.9,306.95 c 200.62,139.5 435.31,232.46 692.07,156.14 41.56,-12.35 139.84,-48.91 207.03,-97.74 19.45,-14.18 36.33,-29.29 47.11,-45.43 7.11,-10.74 11.6,-21.76 9.14,-33.28 -2.89,-13.08 -14.38,-23.2 -29.38,-32.93 -22.1,-14.331 -51.75,-26.089 -85.78,-36.132 -173.59,-51.289 -453.9,-55.386 -509.88,-46.679 -88.94,13.75 -176.05,33.551 -260.51,61.011 180.55,10.508 361.14,31.92 539.1,57.23 23.25,3.28 39.11,23.36 35.59,44.77 -3.63,21.36 -25.43,36.05 -48.67,32.73 -196.56,-27.97 -396.49,-51.13 -595.82,-59.69 z m -7872.74,0 c -200.782,139.5 -435.309,232.46 -692.149,156.14 -41.601,-12.35 -139.801,-48.91 -206.992,-97.74 -19.57,-14.18 -36.438,-29.29 -47.1798,-45.43 -7.1484,-10.74 -11.5703,-21.76 -9.0703,-33.28 2.8516,-13.08 14.3831,-23.2 29.3011,-32.93 22.07,-14.331 51.761,-26.089 85.781,-36.132 173.668,-51.289 453.988,-55.386 509.918,-46.679 88.871,13.75 176.141,33.551 260.59,61.011 -180.629,10.508 -361.207,31.92 -539.141,57.23 -23.238,3.28 -39.18,23.36 -35.629,44.77 3.602,21.36 25.391,36.05 48.641,32.73 196.601,-27.97 396.441,-51.13 595.93,-59.69 z m 3027.82,292.62 c 17.46,175.12 -49.42,360.35 -198.71,471.76 -29.97,22.42 -78.95,56.25 -128.99,78.12 -19.34,8.48 -38.67,15.43 -56.68,18.17 -0.59,-1.88 -1.01,-3.75 -1.6,-5.59 -9.02,-33.2 -17.62,-79.06 -19.22,-86.25 -27.3,-128.71 -5.51,-245.04 79.26,-351.68 44.76,-56.33 108.32,-92.62 171.56,-127.97 30.08,-16.79 60.2,-33.4 88.67,-51.17 -28.9,53.6 -57.26,107.46 -88.67,159.69 -11.48,18.94 -3.94,42.85 16.56,53.32 20.67,10.47 46.53,3.59 58.01,-15.35 28.05,-46.84 53.95,-94.96 79.81,-143.05 z m 1817.07,0 c -17.58,175.12 49.29,360.35 198.59,471.76 30.12,22.42 79.1,56.25 129.1,78.12 19.22,8.48 38.56,15.43 56.56,18.17 0.59,-1.88 1.18,-3.75 1.61,-5.59 9.18,-33.2 17.73,-79.06 19.18,-86.25 27.5,-128.71 5.54,-245.04 -79.22,-351.68 -44.77,-56.33 -108.32,-92.62 -171.57,-127.97 -30.07,-16.79 -60.03,-33.4 -88.67,-51.17 28.91,53.6 57.42,107.46 88.83,159.69 11.33,18.94 3.91,42.85 -16.72,53.32 -20.51,10.47 -46.52,3.59 -57.85,-15.35 -28.24,-46.84 -53.95,-94.96 -79.84,-143.05 z m -4147.93,-53.63 c 15,163.63 -109.18,335.39 -240.59,431.25 -59.18,43.24 -132.73,70.9 -206.44,84.65 -1.18,0.19 -4.69,0.74 -9.03,1.4 -8.75,-54.33 12.5,-119.37 45.63,-184.02 63.71,-124.26 175.5,-246.45 252.26,-294.26 12.82,-7.97 30.82,-15.58 50.9,-23.32 -17.46,28.16 -35.35,56.06 -54.37,83.32 -12.82,18.2 -7.15,42.46 12.61,54.18 19.81,11.72 46.25,6.45 58.91,-11.76 32.11,-45.9 61.21,-93.67 90.12,-141.44 z m 6478.63,0 c -14.81,163.63 109.22,335.39 240.62,431.25 59.34,43.24 132.74,70.9 206.61,84.65 1.01,0.19 4.53,0.74 8.86,1.4 8.75,-54.33 -12.5,-119.37 -45.62,-184.02 -63.56,-124.26 -175.51,-246.45 -252.27,-294.26 -12.81,-7.97 -30.82,-15.58 -50.9,-23.32 17.46,28.16 35.47,56.06 54.54,83.32 12.65,18.2 6.99,42.46 -12.82,54.18 -19.76,11.72 -46.05,6.45 -58.86,-11.76 -32.11,-45.9 -61.22,-93.67 -90.16,-141.44 z m -5371.33,85.31 c 6.84,173.32 -101.91,360.2 -247.03,458.16 -27.34,18.48 -107.15,59.54 -178.09,77.23 -20.66,5.12 -40.43,8.36 -57.42,7.46 -5.7,-0.31 -11.05,-0.62 -15.27,-2.42 0.27,-8.36 1.6,-28.01 5.08,-44.1 17.03,-79.22 63.4,-197.5 78.79,-221.45 53.67,-82.93 131.44,-136.09 211.13,-186.52 26.29,-16.6 52.77,-32.93 78.79,-49.69 -22.81,35 -46.25,69.73 -70.94,103.71 -13.09,17.97 -7.85,42.35 11.76,54.42 19.49,12.03 45.94,7.22 59.02,-10.78 44.06,-60.47 83.91,-123.4 124.18,-186.02 z m 4264.06,0 c -6.83,173.32 102.07,360.2 247.03,458.16 27.35,18.48 107.15,59.54 178.09,77.23 20.78,5.12 40.43,8.36 57.42,7.46 5.71,-0.31 11.21,-0.62 15.43,-2.42 -0.43,-8.36 -1.76,-28.01 -5.08,-44.1 -17.03,-79.22 -63.39,-197.5 -78.94,-221.45 -53.67,-82.93 -131.45,-136.09 -211.13,-186.52 -26.18,-16.6 -52.62,-32.93 -78.79,-49.69 22.97,35 46.25,69.73 70.93,103.71 13.09,17.97 7.86,42.35 -11.6,54.42 -19.65,12.03 -46.09,7.22 -59.18,-10.78 -43.9,-60.47 -83.9,-123.4 -124.18,-186.02"
         style="fill:#332b12;fill-opacity:0.8;fill-rule:evenodd;stroke:none"
         id="path14" /></g></g></svg>
