<?xml version="1.0" encoding="UTF-8" standalone="no"?>
<svg
   version="1.1"
   id="svg2"
   xml:space="preserve"
   width="445"
   height="986"
   viewBox="0 0 445 986"
   sodipodi:docname="laurel-left.svg"
   inkscape:version="1.2.1 (ef4d3fba62, 2022-07-19, custom)"
   xmlns:inkscape="http://www.inkscape.org/namespaces/inkscape"
   xmlns:sodipodi="http://sodipodi.sourceforge.net/DTD/sodipodi-0.dtd"
   xmlns="http://www.w3.org/2000/svg"
   xmlns:svg="http://www.w3.org/2000/svg"
   xmlns:rdf="http://www.w3.org/1999/02/22-rdf-syntax-ns#"
   xmlns:cc="http://creativecommons.org/ns#"
   xmlns:dc="http://purl.org/dc/elements/1.1/"><metadata
     id="metadata8"><rdf:RDF><cc:Work
         rdf:about=""><dc:format>image/svg+xml</dc:format><dc:type
           rdf:resource="http://purl.org/dc/dcmitype/StillImage" /></cc:Work></rdf:RDF></metadata><defs
     id="defs6"><rect
       x="465.56073"
       y="362.94324"
       width="490.57788"
       height="252.26288"
       id="rect3434" /></defs><sodipodi:namedview
     pagecolor="#ffffff"
     bordercolor="#666666"
     borderopacity="1"
     objecttolerance="10"
     gridtolerance="10"
     guidetolerance="10"
     inkscape:pageopacity="0"
     inkscape:pageshadow="2"
     inkscape:window-width="2560"
     inkscape:window-height="1377"
     id="namedview4"
     inkscape:pagecheckerboard="0"
     showgrid="false"
     width="2000px"
     inkscape:zoom="0.60798515"
     inkscape:cx="1192.4633"
     inkscape:cy="708.89889"
     inkscape:window-x="1080"
     inkscape:window-y="27"
     inkscape:window-maximized="1"
     inkscape:current-layer="g10"
     inkscape:showpageshadow="2"
     inkscape:deskcolor="#d1d1d1" /><g
     id="g10"
     inkscape:groupmode="layer"
     inkscape:label="ink_ext_XXXXXX"
     transform="matrix(1.3333333,0,0,-1.3333333,0,1601.3333)"><text
       xml:space="preserve"
       transform="matrix(0.75000002,0,0,-0.75000002,0,1201)"
       id="text3432"
       style="font-style:normal;font-variant:normal;font-weight:normal;font-stretch:normal;font-size:40px;line-height:1.25;font-family:'Amatic SC';-inkscape-font-specification:'Amatic SC';white-space:pre;shape-inside:url(#rect3434);fill:#332b12;fill-opacity:1;stroke:none" /><g
       id="g16"
       transform="matrix(0.22679148,0,0,0.22679148,-86.625255,-2498.1217)"
       style="fill:#332b12;fill-opacity:0.6"><path
         d="m 1791.37,15996.3 c -15.29,0 -27.71,14.2 -27.71,31.6 0,17.5 12.42,31.7 27.71,31.7 15.29,0 27.73,-14.2 27.73,-31.7 0,-17.4 -12.47,-31.5 -27.73,-31.5 z M 772.049,15717 c 5.066,5.3 12.11,8.3 19.463,8.3 2.224,0 4.442,-0.3 6.623,-0.7 5.797,-0.8 10.801,-4.4 13.337,-9.7 16.269,-30.8 -10.85,-116.2 -33.047,-166.2 -0.3,-0.7 -0.829,-1.9 -1.524,-3.6 -5.717,-13.7 -9.942,-22.9 -13.255,-29.2 -3.178,7.9 -6.261,15.9 -6.922,18 -3.892,14.2 -6.873,28.7 -8.932,43.4 -4.471,29.7 -4.02,112.3 24.257,139.7 z m 0.875,-459.5 c 7.024,28.1 14.91,49.7 23.921,65.7 8.067,14.4 53.488,58.4 78.67,64.5 1.408,0.3 2.855,0.5 4.303,0.6 0.869,0 1.727,-0.1 2.504,-0.5 2.954,-2 3.678,-5.2 4.892,-13.3 l 0.312,-2 c 9.795,-63.8 -45.01,-108.7 -99.926,-144.3 l -2.697,-1.7 c -6.824,-4.7 -13.993,-8.9 -21.438,-12.5 2.089,12.4 6.146,30.7 9.344,43.5 z m 700.736,994.3 c 0,12.9 12.68,23.4 28.15,23.4 15.49,0 28.27,-10.5 28.27,-23.4 0,-12.8 -12.67,-23.3 -28.27,-23.3 -15.58,0 -28.15,10.5 -28.15,23.3 z m 101.05,-422.4 c -14.78,0.3 -26.49,12.6 -26.14,27.4 0.3,13 9.93,23.9 22.83,25.8 0.39,-0.2 0.78,-0.3 1.19,-0.5 2.82,-1.2 5.98,-1.2 8.83,-0.1 14.22,-4.2 22.4,-19 18.27,-33.3 -3.25,-11.2 -13.34,-19 -24.98,-19.3 z m -287.24,-230.7 c 0,12.6 9.29,22.8 20.75,22.8 11.45,0 20.73,-10.2 20.73,-22.8 0,-12.5 -9.3,-22.7 -20.73,-22.7 -11.44,0 -20.75,10.1 -20.75,22.7 z m 161.93,8.1 c 10.3,0 18.69,-9.4 18.69,-20.9 0,-11.5 -8.39,-20.9 -18.69,-20.9 -10.3,0 -18.68,9.4 -18.68,20.9 0,11.5 8.38,20.9 18.68,20.9 z m 129.48,-164.8 c 13.54,0.2 24.73,-10.5 24.98,-24.1 0.25,-13.5 -10.51,-24.7 -24.05,-24.9 -13.54,-0.3 -24.72,10.5 -24.98,24 0,0.2 0,0.3 0,0.5 -0.11,13.4 10.65,24.3 24.05,24.5 z m -17.86,-264.1 c 0,-14.8 -12.62,-26.9 -28.16,-26.9 -15.54,0 -28.16,12.1 -28.16,26.9 0.12,10.1 6.02,19.4 15.22,23.8 h 0.32 c 2.56,0 5.03,0.9 7.08,2.5 1.81,0.3 3.67,0.5 5.53,0.5 15.51,0 28.14,-12.1 28.14,-26.8 z m -163.57,-53.6 c -13.2,-0.3 -24.19,10.1 -24.54,23.3 -0.34,13.2 10.08,24.2 23.28,24.6 0.42,0 0.84,0 1.26,0 0.43,0 0.85,0 1.26,0 0.75,-0.3 1.51,-0.4 2.29,-0.5 0.47,0 0.94,0 1.41,0 h 0.37 c 12.89,-2.9 21.03,-15.6 18.18,-28.5 -2.43,-11 -12.23,-18.8 -23.51,-18.7 z m -296.79,-847.2 c -4.09,21.3 -1.27,36.6 7.38,39.9 1.52,0.6 3.15,0.9 4.78,0.8 10.94,0 27.57,-10.6 40.03,-31.1 25.9,-42.7 31.55,-92.6 32.7,-143.1 -10.91,17.2 -23.78,35.5 -36.45,53.4 -22.33,31.7 -45.44,64.5 -48.44,80.1 z m 439.64,492.4 c 14.31,41.2 35.03,84 48.21,99.6 6.36,7.6 19.32,17.8 33.9,23.8 5.95,2.5 12.32,4 18.79,4.2 5.09,0.2 10.08,-1.4 14.05,-4.6 7.47,-6.3 11.18,-14.8 11.33,-26 0.68,-48.9 -63.98,-126.6 -91.11,-150.7 -8.59,-7.7 -36.65,-23.5 -53.14,-32.1 -0.81,15.8 3.45,44 17.97,85.8 z m -197.4,-276 -0.13,0.2 c -33.43,64.9 -47.38,116.3 -41.42,152.9 2.06,12.6 8.29,50.5 24.76,50.5 0.43,0 0.86,0 1.29,-0.1 41.56,-4.8 34.64,-102.7 31.33,-149.7 -0.62,-8.6 -1.13,-16 -1.35,-21.9 -0.71,-20.2 -1.87,-39.3 -3.12,-52.6 -4.28,7 -8.62,15.4 -11.36,20.7 z m 50.43,-108.7 1.38,0.9 c 17.59,10.4 35.79,21.2 53.8,28.8 35.74,15 64.83,13.1 74.13,-5.1 7.56,-14.7 0.6,-39.6 -27.22,-56.6 -37.15,-22.7 -89.35,-28.2 -140.23,-30.7 -11.91,-0.6 -25.67,-0.6 -38.54,-0.5 23.67,23 48.25,46.5 76.68,63.3 z m -162.99,-366.9 c 35.68,38 64.02,55.9 76.2,56.8 1,0 1.96,0.1 2.93,0.1 12.74,0 23.49,-6.2 28.51,-16.7 5.37,-11.2 2.51,-24 -7.88,-35.1 -18.13,-19.5 -36.8,-33.4 -78.59,-47.2 -18.23,-6.1 -49.7,-15.7 -70.48,-21.6 10.59,18.2 28.73,41.9 49.31,63.8 z m -409.024,-55 c 4.708,7.3 12.709,11.7 21.352,11.9 0.977,0 1.938,0.1 2.882,0.1 11.791,0 20.161,-4.3 26.201,-13.3 30.472,-45.3 -7.995,-181.6 -20.667,-208.5 l -0.221,-0.4 c -1.954,-4.2 -4.119,-8.4 -6.511,-12.4 l -7.583,23.6 c -4.409,13.7 -8.567,26.6 -10.406,32.6 -11.643,37.8 -29.07,132 -5.047,166.5 z m 35.762,-368 c -53.011,-19.5 -113.162,-41.6 -144.768,-25.5 -10.337,5.3 -17.279,14.8 -21.221,29 -4.852,17.4 4.126,30.3 8.446,36.4 0.766,1.1 1.395,2 1.806,2.7 1.194,2 7.261,8.6 34.176,8.6 14.709,0 35.634,-2 65.372,-7.8 36.028,-7 74.442,-17.5 104.795,-26.5 -15.009,-4.4 -31.331,-10.4 -48.606,-16.9 z m -405.531,738 c 3.961,9.8 12.936,15.6 27.452,17.8 1.562,0.2 3.135,0.3 4.721,0.4 7.353,0 16.565,-3.1 25.326,-17.5 12.393,-20.6 19.5,-57.9 19.483,-102.2 0,-29.8 -3.132,-52.4 -6.211,-65.2 -2.32,3.1 -4.458,6.2 -5.583,7.8 -1.409,2.1 -2.534,3.7 -3.514,5 -40.286,52.5 -74.432,122.2 -61.674,153.9 z m 172.585,-507.4 c -45.691,-4.4 -152.954,-2.3 -192.979,32 -9.36,8 -14.213,17.1 -14.825,27.7 -0.398,6.6 2.816,10.8 22.168,16.3 15.858,4.5 32.271,6.8 48.767,6.8 55.479,0 105.805,-25.5 154.826,-50.5 15.67,-7.9 30.876,-15.7 45.819,-22.3 -23.721,-4.3 -51.833,-8.9 -63.829,-10 z m 34.785,362.9 c 4.655,3.7 10.886,8.6 15.542,8.6 0.398,0 0.796,0 1.194,-0.1 7.004,-1.5 11.959,-5.6 15.568,-12.9 18.026,-36.6 -7.985,-130.9 -22.579,-161.3 -0.431,-0.9 -1.158,-2.6 -3.313,-7.5 -8.281,-19.5 -14.295,-33 -18.588,-42.2 -26.586,70.4 -41.796,172.3 12.176,215.4 z M 1032.35,13673 c 0.96,4.6 3.47,9.6 15.02,12.2 2.59,0.6 5.24,0.8 7.9,0.9 23.01,0 40.73,-22.5 51.95,-42.5 25.53,-45.5 33.55,-105.6 27.33,-132.7 -19.4,20.1 -37.61,41.3 -54.53,63.5 -48.27,63.7 -49.42,90.2 -47.67,98.6 z m -354.032,1385.8 c -37.46,16.1 -112.829,62.8 -117.373,97.6 -0.727,5.7 -0.227,14.4 12.61,24.5 3.672,3 8.288,4.6 13.039,4.6 1.552,0 3.102,-0.2 4.635,-0.4 32.617,-5.6 78.936,-62 111.392,-112.9 1.191,-1.8 4.158,-5.9 9.738,-13.6 3.112,-4.3 7.866,-10.9 12.643,-17.6 -17.298,5.9 -32.205,11.6 -46.684,17.8 z m 118.412,-134.1 c 6.096,33.5 15.305,59.6 28.162,79.5 9.126,14.2 24.852,25.3 35.387,25.3 h 0.776 c 2.981,-0.1 7.403,-1.3 11.361,-9.2 19.371,-38.7 -23.188,-108.7 -69.576,-161.2 -1.524,-1.8 -3.396,-3.8 -5.449,-6.1 -2.816,-3.1 -5.415,-6 -7.82,-8.7 -0.595,24 1.81,50.9 7.159,80.4 z m 538.12,1126.9 c -15.4,0 -27.95,13 -27.95,29 0,15.9 12.55,28.9 27.95,28.9 15.41,0 27.94,-13 27.94,-28.9 0,-16 -12.53,-29 -27.94,-29 z m 410.49,150.9 c 14.32,0 25.99,-12.7 25.99,-28.4 0,-15.7 -11.6,-28.5 -25.99,-28.5 -11.73,0 -21.66,8.6 -24.86,20.3 0.41,1.8 0.37,3.7 -0.09,5.5 -0.24,1 -0.57,1.9 -1.01,2.7 -0.1,15.7 11.56,28.4 25.96,28.4 z m 46.03,-118 c -15.27,-0.1 -29.68,-7.1 -39.26,-19 -40.68,25.4 -134.88,24.2 -139.3,24.1 -7.41,-0.1 -20.81,-1.7 -34.31,-3.3 25.44,19.6 60.36,41.8 76.74,48.9 l 4.68,2 c 11.9,5.1 25.98,11.2 38.77,15.5 7.88,-18.7 25.76,-31.8 46.51,-31.8 28.05,0 50.85,23.9 50.85,53.3 0,29.3 -22.75,53.2 -50.71,53.2 -26.97,0 -49.09,-22.2 -50.73,-50 -14.91,-4.8 -30.93,-11.7 -44.39,-17.5 l -4.65,-2 c -17.4,-7.5 -57.16,-32.3 -85.88,-55.1 1.25,15.9 1.55,31.7 0.89,47.6 -1.44,34.4 -7.01,58.6 -16.57,72.1 7.05,8.2 10.95,18.6 11,29.3 0,26.5 -23.82,48.2 -53.11,48.2 -29.29,0 -53.01,-21.6 -53.01,-48.2 0,-26.5 23.83,-48.1 53.01,-48.1 7.57,-0.1 15.06,1.4 22.05,4.3 4.02,-5.8 10.27,-22.3 11.8,-58.7 1.08,-25.3 -0.65,-49.7 -3.32,-64.7 -2.02,0.5 -4.22,1.1 -6.62,1.7 -6.2,1.6 -13.59,3.3 -21.97,5.3 l -0.64,0.1 c -28,6.3 -78.04,14.6 -117.34,3 -6.04,23.2 -26.94,39.5 -50.94,39.7 -29.11,0 -52.8,-24.2 -52.8,-53.8 0,-29.7 23.62,-53.8 52.73,-53.8 24.83,0.2 46.21,17.5 51.47,41.8 35.46,13.8 89.34,3.9 111.19,-1.1 l 0.7,-0.1 c 8.76,-2 15.62,-3.7 20.92,-5 -461.6,-520.7 -674.228,-1053.1 -632.084,-1583.3 -48.52,97.3 -79.515,209.2 -99.08,319.8 2.868,2.1 4.681,5.3 4.967,8.9 2.024,5.8 16.565,21.7 22.862,28.6 2.172,2.4 4.126,4.5 5.735,6.4 32.156,36.4 103.65,127.8 73.188,188.8 -7.007,14.1 -18.47,22.2 -32.258,22.9 -23.092,1.3 -46.467,-18.2 -58.393,-36.7 -14.66,-22.8 -25.027,-51.7 -31.725,-88.6 -0.563,-3.1 -1.076,-6.1 -1.655,-9.1 -3.461,31.2 -6.146,61.9 -8.186,91.4 2.649,3 3.757,7 2.988,10.9 -0.129,0.5 -0.283,1.1 -0.468,1.6 -0.947,2.9 -2.24,5.6 -3.842,8.1 -1.425,23.6 -2.435,46.5 -3.149,68.5 -0.944,29.5 -1.342,58.1 -1.355,85.7 15.203,2.2 29.715,11.6 41.661,19.4 l 2.635,1.6 c 25.112,16.3 56.873,38.5 79.801,66.5 26.218,31.9 36.719,66.4 31.169,102.4 l -0.276,1.9 c -1.392,9.3 -3.31,22.1 -15.693,30.4 -7.123,4.7 -15.983,5.8 -26.386,3.3 -34.409,-8.3 -84.104,-58 -94.54,-76.5 -6.501,-11.9 -11.926,-24.3 -16.203,-37.1 3.711,96.5 11.15,165.9 13.485,186.1 6.926,6.4 14.911,20.8 27.564,51.1 0.595,1.5 1.046,2.6 1.309,3.1 6.149,13.9 59.338,136.8 32.304,187.9 -6.083,12 -17.499,20.4 -30.764,22.7 -18.417,3.3 -35.002,-1.6 -47.958,-14.2 -40.187,-39.1 -34.788,-138.8 -31.373,-161.4 2.217,-15.7 5.419,-31.2 9.59,-46.5 0.879,-3.1 6.412,-17.1 8.281,-21.7 1.461,-3.7 3.563,-8.8 5.303,-12.8 0.431,-1 0.895,-2.1 1.392,-3.1 -3.313,-27.9 -21.056,-189.9 -14.709,-389.3 0.312,-10 0.71,-19.7 1.128,-29.5 -0.615,0.9 -1.243,1.7 -1.859,2.6 -3.958,5.4 -8.05,11.1 -8.896,12.4 -21.967,34.5 -78.439,115.5 -128.187,124 -13.133,2.5 -26.704,-0.9 -37.186,-9.2 -21.023,-16.5 -23.507,-34.8 -21.885,-47.2 7.965,-61.1 130.868,-116.7 132.181,-117.2 16.081,-6.9 32.63,-13.2 52.06,-19.7 0.5,-0.2 2.224,-0.9 3.613,-1.4 5.218,-2.1 9.659,-3.8 13.535,-5.1 6.379,-94 17.927,-181.9 34.505,-262.3 27.119,-131.3 67.924,-242.8 121.06,-331.5 21.428,-181.9 73.275,-363.2 154.314,-539.7 69.03,-150.3 159.27,-297.4 268.22,-437.2 5.17,-6.7 10.33,-13.2 15.5,-19.7 -60.61,20.4 -119.44,45.8 -175.9,75.9 14.8,37 0.36,112.6 -26.5,160.5 -23.44,41.8 -54.28,60.8 -86.87,53.6 -23.87,-5.2 -31.69,-20 -34.03,-31.4 -5.31,-26 12.32,-66 52.42,-118.8 4.07,-5.4 8.28,-10.7 12.39,-15.8 -36.73,23.3 -71.23,47.8 -103.667,73 -1.263,1.7 -2.922,3 -4.826,3.8 -37.572,29.5 -73.653,61 -108.092,94.1 6.889,8.5 12.65,17.9 17.131,27.9 l 0.22,0.4 c 12.278,26 57.795,175 18.815,233 -11.413,16.9 -29.073,25.2 -51.07,24.1 -16.272,-0.6 -31.274,-9 -40.387,-22.5 -14.262,-20.4 -19.253,-54.5 -14.907,-101.3 2.829,-29.3 8.376,-58.4 16.565,-86.7 1.803,-5.8 5.747,-18 9.939,-31.2 -25.445,26.5 -48.557,52.6 -69.33,77.4 -0.855,4 -3.642,7.4 -7.455,9 -28.441,34.5 -53.721,68.1 -75.902,99.6 4.06,7.2 7.754,14.5 11.067,22 6.508,14.1 13.532,30.6 17.309,39.5 1.273,3 2.484,5.9 2.75,6.5 11.762,24.5 47.277,132.5 22.48,183 -6.958,14.1 -18.223,23.2 -32.722,26.2 -16.213,3.5 -29.468,-7.1 -37.383,-13.4 -33.634,-26.8 -49.235,-72.7 -45.142,-132.7 1.181,-16.2 3.484,-32.2 6.889,-48 -35.633,57.9 -56.936,100.8 -64.506,116.7 3.043,6.2 5.237,12.8 6.527,19.6 3.06,15 4.942,30.3 5.629,45.6 1.043,19.5 2.106,69.3 -10.682,110.3 -17.131,54.8 -49.165,58.6 -66.777,55.9 -29.435,-4.4 -41.693,-20.5 -46.816,-33.2 -24.102,-59.6 55.828,-166.4 65.023,-178.3 0.612,-0.8 1.658,-2.4 2.797,-4 6.81,-9.8 13.255,-18.5 20.246,-23.2 10.469,-22.4 67.023,-138.7 173.295,-274.7 -11.893,5.5 -24.089,11.7 -36.597,18.1 -64.125,32.5 -136.813,69.5 -221.648,45.4 -13.617,-3.9 -41.927,-11.9 -40.187,-41.7 1.023,-17.5 8.909,-32.7 23.474,-45.1 37.621,-32.3 114.583,-39.7 168.255,-39.7 17.69,0 32.867,0.8 43.257,1.8 11.593,1.1 39.759,5.6 61.525,9.6 12.953,2.3 24.053,4.5 32.051,6.2 1.974,0.4 3.846,0.9 5.603,1.3 53.797,-64.4 112.766,-124.2 176.305,-178.9 -137.744,39.2 -203.013,42.3 -221.766,11.7 -0.247,-0.4 -0.595,-0.9 -1.023,-1.5 -5.471,-7.8 -19.993,-28.7 -11.995,-57.4 5.829,-20.9 17.209,-35.8 33.827,-44.3 11.495,-5.9 24.668,-8.3 38.979,-8.3 37.088,0 81.934,16.6 125.703,32.6 34.473,12.7 67.152,24.7 87.911,25 9.426,-7.4 18.885,-14.6 28.426,-21.6 117.422,-86.6 244.512,-150.7 377.782,-190.7 168.71,-204.1 319.84,-319.7 321.48,-321 5.35,-4.3 13.17,-3.5 17.47,1.9 4.3,5.3 3.45,13.1 -1.9,17.4 -0.17,0.2 -0.36,0.3 -0.55,0.5 -1.65,1.2 -150.1,114.9 -316.61,316.1 -0.97,2.5 -2.71,4.7 -4.97,6.1 -13.02,15.8 -26.12,32.2 -39.3,49.1 -65.97,84.5 -125.89,173.6 -179.29,266.7 0.03,0.5 0.03,1.1 0,1.6 -2.13,68.1 2.71,136.3 14.46,203.5 1.96,0.4 4.02,0.9 6.25,1.5 7.2,1.8 17.04,4.5 29.22,8.1 22.51,6.6 45.62,14 53.29,16.6 46.63,15.4 68.61,32 88.96,53.8 17.21,18.5 21.85,42.5 12.11,63 -9.74,20.4 -31.6,32.4 -55.66,30.6 -29.82,-2.2 -70.82,-41.4 -92.59,-64.6 -8,-8.5 -16.56,-18.4 -24.96,-28.8 26.22,107.9 65.56,207.1 105.83,290.8 h 7.97 c 7.84,-0.1 16.57,-0.2 25.43,-0.2 10.17,0 20.54,0.1 29.93,0.6 54.18,2.7 110.06,8.7 151.96,34.3 40.58,24.9 49.04,64.5 36.45,89.2 -12.51,24.3 -46.89,41.5 -105.91,16.5 -19.56,-8.2 -39.36,-19.9 -56.82,-30.3 l -1.37,-0.8 c -18.47,-11.3 -35.8,-24.3 -51.72,-39 1.27,2.4 2.55,4.8 3.82,7.1 12.33,22.6 24.7,44.2 36.93,64.6 3.2,2.7 5.42,6.4 6.28,10.5 69.57,114.6 132.19,190.8 144.83,205.8 2.39,0.9 4.98,2.2 8.1,3.8 6.05,3 13.59,7 21.24,11.3 11.8,6.6 32.92,18.8 41.93,26.8 26.81,23.9 100.21,108.6 99.4,169.7 -0.27,18.5 -7.04,33.6 -20.17,44.6 -14.47,12.2 -35.15,13.8 -58.21,4.4 -16.28,-6.6 -33.38,-18.7 -43.55,-30.8 -15.34,-18.2 -36.99,-62.4 -52.67,-107.5 -12.32,-35.4 -24.54,-81.4 -17.2,-108.9 -14.77,-17.7 -62.31,-76.6 -118.27,-163.7 0.5,9.7 0.78,17.4 0.85,19.6 0.2,5.4 0.71,12.6 1.29,20.9 4.16,59 11.91,168.7 -53.26,176.2 -10.34,1.2 -29.54,-0.9 -42.15,-28.8 -6.84,-15.1 -9.72,-32.8 -11.28,-42.3 -6.92,-42.5 7.43,-97.6 43.88,-168.3 l 0.12,-0.2 c 7.18,-13.9 14.52,-28.2 23.61,-36.9 -11,-18.6 -22.13,-38.1 -33.13,-58.4 -39.21,-71.6 -73.17,-145.8 -101.63,-222.3 -2.46,46.4 -10.41,93.7 -35.52,135 -20.13,33.2 -50.96,49.9 -74.98,40.7 -10.04,-3.9 -32.36,-18.3 -22.86,-67.9 4.01,-20.8 26.51,-52.7 52.58,-89.7 21.87,-30.9 46.49,-65.8 56.19,-90.4 -0.92,-3 -1.87,-6 -2.78,-8.9 -32.96,-109 -50.21,-215.4 -51.35,-317 -103.27,191 -191.37,424 -216.663,687.9 -6.745,70.3 -8.929,141 -6.528,211.6 38.861,190.3 124.331,368.1 248.741,517.3 80.18,95.9 152.79,151 173.02,165.6 42.62,-22.4 63.58,-99.4 61.44,-152.1 -26.76,-3.7 -45.53,-28.3 -41.89,-55.1 3.63,-26.8 28.28,-45.5 55.06,-41.9 26.76,3.7 45.52,28.3 41.89,55.1 -2.38,17.4 -13.96,32.3 -30.32,38.8 2.23,43.7 -9.43,102.3 -36.85,142.1 3.12,-1.4 6.35,-2.9 9.94,-4.2 38.62,-15.2 106.34,-72.3 117.31,-109.1 -16.03,-9.1 -25.98,-26 -26.08,-44.4 0,-28.5 23.78,-51.7 53.01,-51.7 29.24,0 53.01,23.2 53.01,51.7 0,28.4 -23.77,51.6 -53.01,51.6 -1.1,0 -2.15,0 -3.13,-0.1 -7.52,25.1 -30.08,50.5 -49.41,68.6 -26.84,25.2 -59.26,47.3 -82.6,56.5 -4.51,1.8 -8.74,3.7 -12.81,5.6 -6.55,3.1 -13.31,5.8 -20.24,8.1 23.1,10.8 47.1,19.6 71.7,26.3 37.57,10 76.2,9.4 96.2,7.2 8.67,-25.8 36.66,-39.8 62.52,-31.1 25.85,8.7 39.78,36.7 31.11,62.5 -8.67,25.9 -36.66,39.8 -62.52,31.1 -16.86,-5.6 -29.38,-19.9 -32.77,-37.4 -27.17,2.5 -66.27,0.8 -100.84,-8.2 -13.81,-3.7 -27.43,-8.1 -40.78,-13.2 35.84,39.9 46.16,78.4 58.09,122.9 1.05,3.9 2.12,7.9 3.21,11.9 23.47,0.6 42.38,20.9 42.38,45.7 0,25.2 -19.53,45.7 -43.53,45.7 -24,0 -43.54,-20.5 -43.54,-45.7 -0.12,-15.7 7.7,-30.3 20.78,-39 -1.11,-4.1 -2.21,-8.1 -3.32,-12.1 -11.59,-43.5 -20.84,-77.7 -53.26,-113.5 -4.61,-5.1 -11.1,-11.4 -17.89,-17.7 7.39,30.6 11.09,60.4 6.15,97.9 -1.99,15 -9.94,43.6 -19.79,61.8 9.78,9.2 15.29,22 15.23,35.4 0,26.3 -20.45,47.6 -45.59,47.6 -25.13,0 -45.59,-21.3 -45.59,-47.6 0,-26.2 20.44,-47.6 45.59,-47.6 2.78,0 5.55,0.3 8.28,0.8 7.56,-13.4 15.37,-39 17.3,-53.7 6.34,-48.2 -2.98,-82 -16.31,-127.5 -17.73,-12.5 -93.47,-68.2 -179.48,-171 -98.27,-117 -173.047,-252 -220.245,-397.3 49.034,418.2 257.935,836.5 623.915,1247.9 9.23,-12.1 23.85,-34.8 27.55,-47 10.59,-35.1 10.55,-64.4 -0.3,-96.1 -28.01,-3.1 -48.25,-28.2 -45.2,-56.3 3.06,-28 28.24,-48.2 56.26,-45.1 28.01,3 48.25,28.2 45.19,56.2 -2.01,18.5 -14,34.5 -31.25,41.6 11.02,35 10.64,68.5 -0.91,106.8 -4.31,14.3 -17.03,34.1 -22.29,41.9 -1.66,2.4 -3.18,4.7 -4.76,6.9 17.15,2.4 38.31,5.2 47.12,5.3 40.53,0.7 106.11,-5.7 127.55,-21.4 -1.31,-5 -1.97,-10.1 -1.97,-15.3 0,-31.1 23.58,-56.5 52.56,-56.5 28.99,0 52.58,25.4 52.58,56.5 0,31.1 -23.64,56.5 -52.63,56.5"
         style="fill:#332b12;fill-opacity:0.6;fill-rule:nonzero;stroke:none"
         id="path18" /></g></g></svg>
