<?xml version="1.0" encoding="UTF-8" standalone="no"?>
<svg
   version="1.1"
   id="svg2"
   xml:space="preserve"
   width="2000"
   height="1500"
   viewBox="0 0 2000 1500"
   sodipodi:docname="laurel.svg"
   inkscape:version="1.1.2 (08b2f3d93c, 2022-04-05)"
   xmlns:inkscape="http://www.inkscape.org/namespaces/inkscape"
   xmlns:sodipodi="http://sodipodi.sourceforge.net/DTD/sodipodi-0.dtd"
   xmlns="http://www.w3.org/2000/svg"
   xmlns:svg="http://www.w3.org/2000/svg"
   xmlns:rdf="http://www.w3.org/1999/02/22-rdf-syntax-ns#"
   xmlns:cc="http://creativecommons.org/ns#"
   xmlns:dc="http://purl.org/dc/elements/1.1/"><metadata
     id="metadata8"><rdf:RDF><cc:Work
         rdf:about=""><dc:format>image/svg+xml</dc:format><dc:type
           rdf:resource="http://purl.org/dc/dcmitype/StillImage" /></cc:Work></rdf:RDF></metadata><defs
     id="defs6"><rect
       x="465.56073"
       y="362.94324"
       width="490.57788"
       height="252.26288"
       id="rect3434" /></defs><sodipodi:namedview
     pagecolor="#ffffff"
     bordercolor="#666666"
     borderopacity="1"
     objecttolerance="10"
     gridtolerance="10"
     guidetolerance="10"
     inkscape:pageopacity="0"
     inkscape:pageshadow="2"
     inkscape:window-width="2560"
     inkscape:window-height="1377"
     id="namedview4"
     inkscape:pagecheckerboard="0"
     showgrid="false"
     width="2000px"
     inkscape:zoom="0.60798515"
     inkscape:cx="1193.2857"
     inkscape:cy="708.8989"
     inkscape:window-x="1080"
     inkscape:window-y="27"
     inkscape:window-maximized="1"
     inkscape:current-layer="g10" /><g
     id="g10"
     inkscape:groupmode="layer"
     inkscape:label="ink_ext_XXXXXX"
     transform="matrix(1.3333333,0,0,-1.3333333,0,1601.3333)"><text
       xml:space="preserve"
       transform="matrix(0.75000002,0,0,-0.75000002,0,1201)"
       id="text3432"
       style="font-style:normal;font-variant:normal;font-weight:normal;font-stretch:normal;font-size:40px;line-height:1.25;font-family:'Amatic SC';-inkscape-font-specification:'Amatic SC';white-space:pre;shape-inside:url(#rect3434);fill:#332b12;fill-opacity:1;stroke:none" /><g
       aria-label="Kateřina Matoušková
&amp;
Max Kovykov"
       transform="scale(1,-1)"
       id="text7642"
       style="font-size:100px;line-height:1.65;fill:#332b12;stroke-width:0.75"><path
         d="m 474.50097,-761.6444 q -0.6,0 -1.2,-0.2 -0.5,-0.1 -1.1,-0.1 -2.7,-15.3 -5.4,-25.6 -2.7,-10.3 -6.8,-19.4 l -2.1,3.9 q -0.9,1.7 -1,3 -0.3,3 -0.3,4.4 0,3 0.3,9.2 0.3,6.1 0.3,9.3 v 8.2 q 0,5.3 -3.4,5.3 -2.9,0 -2.9,-5.6 0,-4.4 0.6,-13.5 0.7,-8.4 0.7,-13.4 l 0.1,-8.6 v -10.4 q 0,-5.5 -0.7,-11.5 -0.7,-6.2 -0.7,-9.4 0,-1.3 0.8,-2.2 0.8,-0.9 2,-0.9 3.7,0 3.7,8.1 l -0.4,20.5 1.9,-4.9 q 3.3,-8.4 6.8,-16.6 2,-4.5 3.6,-7.1 1.7,-2.7 2.7,-2.7 1.1,0 1.9,0.8 0.9,0.7 0.9,1.8 0,1 -5.4,12.4 -5.3,10.9 -6.2,14.5 v 1.8 q 1.5,3.8 8,24.4 6.5,20.5 6.5,21.7 0,1.2 -1,2 -0.9,0.8 -2.2,0.8 z"
         style="font-family:'Amatic SC';-inkscape-font-specification:'Amatic SC';text-align:center;text-anchor:middle"
         id="path1026" /><path
         d="m 506.40087,-763.0444 q -2.3,0 -3.4,-0.7 -1.1,-0.7 -1.1,-2.6 0,-3 -1,-10.2 l -0.4,-2.1 -9.9,-1.5 q -0.6,2.3 -1.7,9.3 -0.6,4.9 -1.9,6.5 -0.7,0.9 -2,0.9 -1.2,0 -2.2,-0.7 -1,-0.8 -1,-1.9 l 0.2,-0.5 0.1,-0.4 q 6.6,-25.7 10,-50.7 0,-0.4 0.1,-1.3 0.1,-1 0.2,-2.8 0.3,-3.7 0.6,-5.9 0.4,-2.2 1.2,-3.3 h 3.4 q 1.4,0 2.4,0.7 1,0.6 1,1.8 0,7.6 2.1,22.6 2,15.4 2,21.6 0,0.6 0.5,3.1 0.5,2.3 0.5,3 0,0.7 1,6 0.9,4.8 0.9,6.2 v 0.1 q 0,2.2 -1.6,2.8 z m -6.6,-19.2 q -0.3,-1.5 -0.3,-3.7 0,-9 -1.6,-23 l -1,-10.4 q -4.3,23.5 -5.9,35.5 1.5,1 8.8,1.6 z"
         style="font-family:'Amatic SC';-inkscape-font-specification:'Amatic SC';text-align:center;text-anchor:middle"
         id="path1028" /><path
         d="m 522.20085,-765.5444 -0.1,-3.9 q -0.1,-1.7 -0.1,-3.8 l 0.1,-3.4 q -0.3,-1.1 -1.5,-21.9 -1.2,-20.8 -1.4,-26.7 -5.8,-0.2 -7.4,-1.2 -1.1,-0.8 -1.1,-1.8 0,-0.8 1,-1.4 1.1,-0.7 2.2,-0.7 2.8,0 6.8,0.4 3.8,0.5 6.8,0.5 h 0.8 0.8 q 3.1,0 3.1,2.4 0,1.2 -1,2 -1,0.7 -2.3,0.7 -0.9,0 -2.6,-0.3 l -2,-0.4 -0.1,0.5 -0.1,0.5 q 0,8.9 1.7,28.4 1.6,18.3 1.6,28.4 0,1.2 -1.1,2.1 -1,0.9 -2.3,0.9 z"
         style="font-family:'Amatic SC';-inkscape-font-specification:'Amatic SC';text-align:center;text-anchor:middle"
         id="path1030" /><path
         d="m 546.80071,-762.6444 q -1.3,0 -2.4,-0.9 -1,-0.9 -1.1,-2.2 v -2.6 -2 q -0.1,-0.9 -0.1,-2.1 0,-2.1 -0.3,-6.4 l -0.2,-6.4 q 0,-4.9 0.3,-14.6 0.4,-8.7 0.4,-14.6 0,-1.4 -0.3,-4.2 -0.3,-2.9 -0.3,-4.2 0,-7.1 4.2,-7.1 3.3,0 7.6,1.3 4.4,1.3 4.4,3.1 0,1 -0.9,1.9 -0.8,0.8 -2,1.3 -4.2,-1.5 -7.6,-2 0.1,1.5 0.1,4.3 0,4 -0.1,7.2 -0.3,4.8 -0.3,7.2 l 0.3,1.6 1.6,-0.1 q 0.8,-0.1 2,-0.1 4.8,0 4.8,2.8 0,1.1 -0.9,1.9 -0.9,0.7 -2.3,0.7 -1.8,0 -2.8,-0.2 h -2.5 q 0.2,2.6 0.2,7.6 0,5 -0.1,9 -0.3,6.1 -0.3,9.1 0,5.6 0.2,5.6 l 3.3,-0.1 q 1.7,-0.1 4.1,-0.1 3.8,0 3.8,2.4 0,1.4 -1.3,2.1 -1.2,0.8 -3,0.8 z"
         style="font-family:'Amatic SC';-inkscape-font-specification:'Amatic SC';text-align:center;text-anchor:middle"
         id="path1032" /><path
         d="m 588.10056,-762.2444 q -2.2,0 -4,-4.8 -2.1,-5.2 -3.1,-10.7 l -0.7,-3.4 q -2.9,-14.3 -3.7,-16.3 h -1.2 q 0,2.9 -0.1,5.3 v 5.5 q 0,13.4 1.9,20.9 l -1.1,2.7 h -2.8 l -1.3,-1.5 0.1,-6.7 q 0,-9 -0.9,-27.3 -0.8,-19.5 -0.8,-27.3 0,-4.8 3.3,-4.8 5.4,0 8.8,2.8 3.5,2.8 3.5,7.8 v 7 q 0,1.5 -0.5,3.5 -0.5,1.9 -1.1,3.1 l -1.9,3.6 -1.6,3 0.5,2.4 1.4,7.1 q 1.4,7.7 2.7,12.5 1.3,4.8 3.2,8.7 l 0.6,1.2 q 1,2 1,3.2 0,1 -0.6,1.7 -0.6,0.8 -1.6,0.8 z m -12.3,-40.1 q 2.2,-1.1 3.7,-6 1.6,-5 1.6,-9.2 0,-3.2 -0.8,-6 -0.5,-1.6 -1.7,-2.4 -1.1,-0.9 -2.8,-0.9 l -0.2,0.5 -0.2,0.9 0.2,11.8 q 0.2,5.2 0.2,11.3 z m 4.9,-30.3 q -1.2,0 -3.4,-3.8 -2.2,-3.9 -4,-8.6 -1.7,-4.7 -1.7,-6.5 0,-0.8 0.7,-1.4 0.8,-0.6 1.7,-0.6 1.1,0 2.5,2.9 1,2.3 2.5,7.4 l 1.3,4.6 q 0.3,-2.4 0.4,-3.3 0.1,-0.9 0.4,-3.3 0.3,-2.5 0.8,-4.5 0.8,-4.1 2.8,-4.1 0.9,0 1.5,0.6 0.6,0.6 0.6,1.5 0,0.3 -0.4,0.8 l -0.4,0.7 v 1.8 l -1.4,5.5 q -1.4,5.8 -1.4,7.1 0,3.2 -2.5,3.2 z"
         style="font-family:'Amatic SC';-inkscape-font-specification:'Amatic SC';text-align:center;text-anchor:middle"
         id="path1034" /><path
         d="m 605.10037,-764.0444 q -8.7,0 -8.7,-3 0,-2.4 3.1,-2.4 h 1.1 l 1,0.1 q 0.8,0 1.1,-0.5 0.3,-0.5 0.3,-1.8 0,-1.7 -0.2,-5.3 -0.3,-2.4 -0.7,-8.6 -0.9,-15.3 -0.9,-23.1 0,-2.8 0.1,-5.1 l 0.1,-5.1 q 0,-3.3 -0.3,-5.5 -1.6,0.4 -2.3,0.4 -2.4,0 -2.4,-2.4 0,-1.2 1.5,-2.1 1.5,-0.9 3.8,-1.3 4,-0.8 7.1,-0.8 1.2,0 2,0.9 0.9,0.8 0.9,1.9 0,1.1 -0.7,1.9 -0.6,0.8 -1.6,0.8 -0.6,0 -1,-0.1 h -0.8 q -1,0 -1.5,0.5 -0.4,0.4 -0.4,1.6 0,9.7 1.2,29.2 0.2,3.6 0.8,10.6 0.5,4.6 0.5,9.4 v 3.8 q 0.6,-0.1 2,-0.1 4.2,0 4.2,3.5 v 0.6 l -2.5,1.7 q -0.1,0 -0.7,0.1 -0.5,0 -2,0 -3.2,0.2 -4.1,0.2 z"
         style="font-family:'Amatic SC';-inkscape-font-specification:'Amatic SC';text-align:center;text-anchor:middle"
         id="path1036" /><path
         d="m 650.00036,-763.6444 q -1.2,0 -1.8,-0.6 -0.6,-0.7 -0.9,-2.3 l -0.6,-1.9 v -0.2 -0.3 q 0,-3.3 -6.9,-22.5 -6.8,-19.2 -10.7,-28.4 v 50.3 l 0.4,0.7 q 0.1,0.2 0.4,0.7 0.3,0.5 0.3,1 0,1.3 -0.9,2.2 -0.9,0.9 -2.2,0.9 -3.2,0 -3.2,-6.1 l -0.1,-17.1 q -0.1,-7.7 -0.1,-17.2 0,-3.2 0.3,-9.3 0.3,-6.3 0.3,-9.3 0,-4.7 3.6,-7.4 v 0.6 q 0.6,-0.2 0.8,-0.2 2.3,0 5.8,8 2.8,6.4 5,13.5 2.3,7.1 6,20.2 l 1,3.6 q 2.3,8.1 3.5,11.6 2,-21.5 2,-50.8 v -1.3 q -0.1,-0.6 -0.1,-1.3 0,-3 2.4,-3 1.4,0 2.1,1.1 0.8,1.1 0.8,2.8 v 7.5 q -0.2,15.4 -1.2,33.4 -1,18 -2.4,20.3 -2.9,0.8 -3.6,0.8 z"
         style="font-family:'Amatic SC';-inkscape-font-specification:'Amatic SC';text-align:center;text-anchor:middle"
         id="path1038" /><path
         d="m 690.30018,-763.0444 q -2.3,0 -3.4,-0.7 -1.1,-0.7 -1.1,-2.6 0,-3 -1,-10.2 l -0.4,-2.1 -9.9,-1.5 q -0.6,2.3 -1.7,9.3 -0.6,4.9 -1.9,6.5 -0.7,0.9 -2,0.9 -1.2,0 -2.2,-0.7 -1,-0.8 -1,-1.9 l 0.2,-0.5 0.1,-0.4 q 6.6,-25.7 10,-50.7 0,-0.4 0.1,-1.3 0.1,-1 0.2,-2.8 0.3,-3.7 0.6,-5.9 0.4,-2.2 1.2,-3.3 h 3.4 q 1.4,0 2.4,0.7 1,0.6 1,1.8 0,7.6 2.1,22.6 2,15.4 2,21.6 0,0.6 0.5,3.1 0.5,2.3 0.5,3 0,0.7 1,6 0.9,4.8 0.9,6.2 v 0.1 q 0,2.2 -1.6,2.8 z m -6.6,-19.2 q -0.3,-1.5 -0.3,-3.7 0,-9 -1.6,-23 l -1,-10.4 q -4.3,23.5 -5.9,35.5 1.5,1 8.8,1.6 z"
         style="font-family:'Amatic SC';-inkscape-font-specification:'Amatic SC';text-align:center;text-anchor:middle"
         id="path1040" /><path
         d="m 747.5,-761.3444 q -1,0 -1.6,-1 -0.6,-1 -0.6,-2.9 l -0.1,-14.8 q -0.1,-1.9 -0.1,-6.3 -0.2,-9.3 -0.2,-21 v -5.1 q -0.9,4.8 -3.1,13.5 -2.2,9 -3.1,14.8 v 0.6 l -0.3,1.9 q -0.2,2.2 -1,4.5 -1,2.4 -3.1,2.4 -3.6,0 -3.6,-9.4 0,-5.2 -1.1,-11.1 -1,-6 -3.3,-14.7 l -3,-11.2 -0.2,12 q 0,5.4 0.5,20.6 l 0.2,6.8 0.2,13.7 q 0,2.1 -1.5,3.8 -2.5,0 -3.5,-1.5 -0.9,-1.6 -0.9,-4.6 l 0.2,-8.2 q 0.3,-5.4 0.3,-8.1 l -0.2,-19.3 -0.2,-19.4 q 0,-4.3 0.2,-12.9 l 2.7,-1.6 q 0.8,0.1 1.6,1.2 0.8,1 1.8,3.3 2.5,6.2 6.5,24.8 0.6,2.6 0.8,4.3 1.2,5.8 1.7,8.8 l 1.5,7.7 0.7,-3.3 1.9,-8.2 q 1.6,-7.2 2.6,-12.6 1.1,-5.4 2.1,-11.7 1.1,-7.5 1.4,-12.5 v -0.6 q 0.2,-1.3 1.2,-2 1,-0.8 2.4,-0.8 0.9,0 1.6,0.8 0.7,0.8 0.7,1.7 0,12 0.9,35.9 0.5,11.7 0.7,22.9 0.2,5.1 0.2,12.9 0,2.3 -1.2,4.1 -1.2,1.8 -2.7,1.8 z"
         style="font-family:'Amatic SC';-inkscape-font-specification:'Amatic SC';text-align:center;text-anchor:middle"
         id="path1042" /><path
         d="m 783.79993,-763.0444 q -2.3,0 -3.4,-0.7 -1.1,-0.7 -1.1,-2.6 0,-3 -1,-10.2 l -0.4,-2.1 -9.9,-1.5 q -0.6,2.3 -1.7,9.3 -0.6,4.9 -1.9,6.5 -0.7,0.9 -2,0.9 -1.2,0 -2.2,-0.7 -1,-0.8 -1,-1.9 l 0.2,-0.5 0.1,-0.4 q 6.6,-25.7 10,-50.7 0,-0.4 0.1,-1.3 0.1,-1 0.2,-2.8 0.3,-3.7 0.6,-5.9 0.4,-2.2 1.2,-3.3 h 3.4 q 1.4,0 2.4,0.7 1,0.6 1,1.8 0,7.6 2.1,22.6 2,15.4 2,21.6 0,0.6 0.5,3.1 0.5,2.3 0.5,3 0,0.7 1,6 0.9,4.8 0.9,6.2 v 0.1 q 0,2.2 -1.6,2.8 z m -6.6,-19.2 q -0.3,-1.5 -0.3,-3.7 0,-9 -1.6,-23 l -1,-10.4 q -4.3,23.5 -5.9,35.5 1.5,1 8.8,1.6 z"
         style="font-family:'Amatic SC';-inkscape-font-specification:'Amatic SC';text-align:center;text-anchor:middle"
         id="path1044" /><path
         d="m 799.59989,-765.5444 -0.1,-3.9 q -0.1,-1.7 -0.1,-3.8 l 0.1,-3.4 q -0.3,-1.1 -1.5,-21.9 -1.2,-20.8 -1.4,-26.7 -5.8,-0.2 -7.4,-1.2 -1.1,-0.8 -1.1,-1.8 0,-0.8 1,-1.4 1.1,-0.7 2.2,-0.7 2.8,0 6.8,0.4 3.8,0.5 6.8,0.5 h 0.8 0.8 q 3.1,0 3.1,2.4 0,1.2 -1,2 -1,0.7 -2.3,0.7 -0.9,0 -2.6,-0.3 l -2,-0.4 -0.1,0.5 -0.1,0.5 q 0,8.9 1.7,28.4 1.6,18.3 1.6,28.4 0,1.2 -1.1,2.1 -1,0.9 -2.3,0.9 z"
         style="font-family:'Amatic SC';-inkscape-font-specification:'Amatic SC';text-align:center;text-anchor:middle"
         id="path1046" /><path
         d="m 831.29978,-762.0444 q -2.6,0 -4.8,-1.7 -2.2,-1.6 -3.6,-4.4 -2.9,-6.1 -3.6,-13.3 -0.9,-6.8 -0.9,-13.1 0,-1.2 0.1,-2 v -1.8 q 0,-0.5 -0.1,-0.5 v -1.8 l 0.1,-7 q 0.1,-3.2 0.8,-10.2 0.5,-4.8 2.3,-9.3 0.7,-2 1.8,-3 1.1,-1.1 2.5,-1.1 4,0 7.2,1.5 3.2,1.4 5.4,4 2,2.5 3.4,6.2 1.4,3.6 2,7.7 0.6,4.2 0.6,8.9 v 0.8 q 0,3.1 0.1,5.6 l 0.1,5.7 q 0,28.8 -13.4,28.8 z m -0.4,-4.2 q 1.8,0 3.3,-1.4 1.5,-1.5 2.3,-4 1.9,-5.1 2.3,-11 0.5,-5.1 0.5,-8.8 0,-4.5 -0.7,-11.8 -0.6,-7.7 -0.6,-11.5 v -1.8 q -0.2,-3.8 -2.6,-6.6 -2.3,-2.8 -5.7,-2.8 -3.4,0 -4.5,3.9 -1,3.1 -1,8 0,1.9 0.1,3.2 v 2.7 l -0.2,4.6 q -0.2,2.1 -0.2,4.6 0,5.4 0.3,10.7 0.4,7.5 2,14.6 1.6,7.4 4.7,7.4 z"
         style="font-family:'Amatic SC';-inkscape-font-specification:'Amatic SC';text-align:center;text-anchor:middle"
         id="path1048" /><path
         d="m 866.29963,-762.4444 q -2.4,0 -4.3,-1.1 -1.9,-1 -3.1,-3 -2.4,-4.2 -3.1,-9.5 -0.7,-4.6 -0.7,-11 -0.3,-10.8 -0.3,-26.4 l -0.1,-7.7 q -0.1,-0.6 -0.1,-2 -0.2,-3.8 -0.2,-4.6 0.9,-2.1 2.1,-2.1 1.2,0 2.1,1.8 1,1.8 1,3.9 v 27.2 q 0,4 0.7,10.6 0.7,8.2 0.7,10.6 0,7.4 6.3,7.4 7.2,0 7.2,-53.8 v -5.6 -0.9 q -0.1,-0.3 -0.1,-0.8 0,-1.2 0.5,-1.7 0.6,-0.6 2.2,-0.6 1.3,0 2,0.8 0.8,0.7 1,1.7 0.1,0.6 0.1,2.3 0,1.6 -0.3,5.1 -0.4,2.9 -0.4,5 0,2.3 -0.2,4.1 l -0.2,4.2 v 0.8 q 0.1,0.4 0.1,0.9 0,44.4 -12.9,44.4 z"
         style="font-family:'Amatic SC';-inkscape-font-specification:'Amatic SC';text-align:center;text-anchor:middle"
         id="path1050" /><path
         d="m 893.49945,-762.5444 q -1.8,-0.3 -3.1,-1.3 -1.2,-1 -1.4,-2.6 l 1.1,-1.7 q 0.6,0 1.9,0.4 1.5,0.3 2.3,0.3 1.8,0 3.2,-1.6 1.5,-1.6 2.2,-4.2 1.3,-4.8 1.3,-8.6 0,-6.6 -4.2,-13.9 l -1.1,-1.9 q -1.9,-3.3 -3.2,-5.9 -1.3,-2.6 -2.2,-5.6 -1.2,-3.9 -1.2,-7.8 0,-4.4 2,-9.2 1,-2.3 2.8,-3.7 1.9,-1.5 4.2,-1.5 1.8,0 3.3,1.2 1.6,1.1 1.6,2.7 0,0.9 -0.7,1.4 -0.7,0.5 -1.7,0.5 -1.1,0 -2.1,-0.6 -2.2,0.1 -3.5,3.9 -1.1,3.5 -1.1,5.8 0,2.9 0.9,5.9 0.9,2.9 2.3,5.3 l 2.2,4 3.5,6.6 q 1.4,2.8 2.2,6.5 0.9,3.7 0.9,7.5 0,6.1 -2.8,11.6 -1.4,2.8 -4,4.5 -2.5,1.7 -5.6,1.7 z m 5,-71.1 q -1.2,0 -3.4,-3.8 -2.2,-3.9 -4,-8.6 -1.7,-4.7 -1.7,-6.5 0,-0.8 0.7,-1.4 0.8,-0.6 1.7,-0.6 1.1,0 2.5,2.9 1,2.3 2.5,7.4 l 1.3,4.6 q 0.3,-2.4 0.4,-3.3 0.1,-0.9 0.4,-3.3 0.3,-2.5 0.8,-4.5 0.8,-4.1 2.8,-4.1 0.9,0 1.5,0.6 0.6,0.6 0.6,1.5 0,0.3 -0.4,0.8 l -0.4,0.7 v 1.8 l -1.4,5.5 q -1.4,5.8 -1.4,7.1 0,3.2 -2.5,3.2 z"
         style="font-family:'Amatic SC';-inkscape-font-specification:'Amatic SC';text-align:center;text-anchor:middle"
         id="path1052" /><path
         d="m 939.99943,-762.2444 q -2.3,0 -4.9,-5 -3.9,-7.5 -7.7,-24.7 -1.1,-4.7 -1.8,-8.7 -3.6,7.2 -3.6,17.4 v 18.5 q 0,2.3 -2,2.3 -1.5,0 -2.5,-0.9 -0.9,-0.8 -0.9,-2.3 v -30.3 q 0,-4.4 1,-16.2 1,-10.3 1,-16.2 0.8,-1.9 2.9,-1.9 1.3,0 2.2,0.9 0.9,0.9 0.9,2.2 v 0.3 q -1.3,2.2 -1.3,18.2 v 3.6 l 3.7,-7.3 q 3.4,-7.1 6.4,-12.2 2.8,-5 4.1,-5 1.6,0 2.7,0.7 1.2,0.7 1.2,2 l -2.4,4 q -7.5,12.1 -8.4,14 0,1.7 -0.1,3 l -0.1,3 q 0,4.3 3.4,16.1 3.5,11.7 5.8,15.5 l 1.3,1.8 q 1.9,2.6 1.9,4.6 0,1.1 -0.9,1.8 -0.8,0.8 -1.9,0.8 z"
         style="font-family:'Amatic SC';-inkscape-font-specification:'Amatic SC';text-align:center;text-anchor:middle"
         id="path1054" /><path
         d="m 963.09928,-762.0444 q -2.6,0 -4.8,-1.7 -2.2,-1.6 -3.6,-4.4 -2.9,-6.1 -3.6,-13.3 -0.9,-6.8 -0.9,-13.1 0,-1.2 0.1,-2 v -1.8 q 0,-0.5 -0.1,-0.5 v -1.8 l 0.1,-7 q 0.1,-3.2 0.8,-10.2 0.5,-4.8 2.3,-9.3 0.7,-2 1.8,-3 1.1,-1.1 2.5,-1.1 4,0 7.2,1.5 3.2,1.4 5.4,4 2,2.5 3.4,6.2 1.4,3.6 2,7.7 0.6,4.2 0.6,8.9 v 0.8 q 0,3.1 0.1,5.6 l 0.1,5.7 q 0,28.8 -13.4,28.8 z m -0.4,-4.2 q 1.8,0 3.3,-1.4 1.5,-1.5 2.3,-4 1.9,-5.1 2.3,-11 0.5,-5.1 0.5,-8.8 0,-4.5 -0.7,-11.8 -0.6,-7.7 -0.6,-11.5 v -1.8 q -0.2,-3.8 -2.6,-6.6 -2.3,-2.8 -5.7,-2.8 -3.4,0 -4.5,3.9 -1,3.1 -1,8 0,1.9 0.1,3.2 v 2.7 l -0.2,4.6 q -0.2,2.1 -0.2,4.6 0,5.4 0.3,10.7 0.4,7.5 2,14.6 1.6,7.4 4.7,7.4 z"
         style="font-family:'Amatic SC';-inkscape-font-specification:'Amatic SC';text-align:center;text-anchor:middle"
         id="path1056" /><path
         d="m 995.09913,-764.2444 q 0,-11.5 -2.2,-23.8 -2.1,-12.3 -6.7,-30.1 -0.2,-1 -0.9,-3.1 -1.8,-5.6 -1.8,-7.1 0,-0.9 0.7,-1.6 0.8,-0.7 1.7,-0.7 1.5,0 2.8,2.5 1.3,2.4 2.4,6.5 1.1,4 2.4,10 1.2,5.7 2.9,17.5 l 0.6,3.9 1.2,8.9 q 0.4,3.7 0.7,5.3 2.09997,-11 5.39997,-31.8 2.7,-17.8 3.8,-24.3 h 2.2 q 0.9,0 1.6,0.7 0.7,0.6 0.7,1.5 0,3.6 -0.9,7.8 -0.8,4.1 -2.5,9.9 -1.4,5 -1.9,7.5 -0.4,2.5 -0.8,7.9 -0.8,12.1 -2.5,21.7 -1.1,5.8 -2.9,9.1 -1.79997,3.3 -4.09997,3.3 z"
         style="font-family:'Amatic SC';-inkscape-font-specification:'Amatic SC';text-align:center;text-anchor:middle"
         id="path1058" /><path
         d="m 1042.2991,-763.0444 q -2.3,0 -3.4,-0.7 -1.1,-0.7 -1.1,-2.6 0,-3 -1,-10.2 l -0.4,-2.1 -9.9,-1.5 q -0.6,2.3 -1.7,9.3 -0.6,4.9 -1.9,6.5 -0.7,0.9 -2,0.9 -1.2,0 -2.2,-0.7 -1,-0.8 -1,-1.9 l 0.2,-0.5 0.1,-0.4 q 6.6,-25.7 10,-50.7 0,-0.4 0.1,-1.3 0.1,-1 0.2,-2.8 0.3,-3.7 0.6,-5.9 0.4,-2.2 1.2,-3.3 h 3.4 q 1.4,0 2.4,0.7 1,0.6 1,1.8 0,7.6 2.1,22.6 2,15.4 2,21.6 0,0.6 0.5,3.1 0.5,2.3 0.5,3 0,0.7 1,6 0.9,4.8 0.9,6.2 v 0.1 q 0,2.2 -1.6,2.8 z m -6.6,-19.2 q -0.3,-1.5 -0.3,-3.7 0,-9 -1.6,-23 l -1,-10.4 q -4.3,23.5 -5.9,35.5 1.5,1 8.8,1.6 z m -2.7,-53.1 q -0.6,0 -1.1,-0.3 -0.5,-0.4 -0.5,-1 0,-0.5 0.5,-1 l 1.6,-1.4 q 0.5,-0.5 5.6,-4.9 l 5.9,-5.1 q 0.4,-0.2 0.9,-0.2 1.2,0 2.2,1.2 1,1.2 1,2.5 0,1.2 -0.7,1.6 -3.6,2.8 -14.6,8.4 -0.2,0.2 -0.8,0.2 z"
         style="font-family:'Amatic SC';-inkscape-font-specification:'Amatic SC';text-align:center;text-anchor:middle"
         id="path1060" /><path
         d="m 740.35002,-593.74999 q -3.7,0 -7,-2.5 -3.3,-2.5 -5.1,-6.4 -1.7,-3.9 -1.7,-7.5 0,-4.5 0.8,-9.1 0.1,-1.5 1.1,-4.2 0.3,-1.1 0.6,-2 0.4,-0.9 0.6,-1.6 0.7,-1.6 1.7,-3.9 1.1,-2.3 1.9,-3.7 0.3,-0.9 2.2,-4.4 0,-2.7 -0.4,-6.8 -0.3,-4.5 -0.3,-6.9 v -8.3 q 0,-3.5 1.7,-5.3 1.7,-1.9 4.5,-1.9 3.9,0 7.1,2.7 3.2,2.7 3.2,6.3 0,5.9 -2,10.7 -1.9,4.7 -6.1,9.6 -0.2,0.2 -0.9,1.4 -1.7,2.4 -1.7,3.4 0,2.8 1.8,9.3 1.8,6.5 4.2,12.5 2.4,6 4.1,7.8 3.1,-6.9 3.1,-17.6 v -0.5 q -0.8,0 -0.9,-0.3 l -0.3,-0.4 -0.2,-0.5 q -0.1,-0.2 -0.2,-0.3 0,-0.1 -0.1,-0.2 v -2.5 q 2.7,0 6.2,-0.3 3.6,-0.4 5.1,-1 2.9,0.6 2.9,2.6 0,1.4 -1.6,2.1 -1.5,0.7 -3.6,0.7 l -0.2,-0.1 h -0.1 -2.5 q 0,15.9 -4.1,21.4 3,3.1 6.3,3.1 l 2.1,-0.2 2,-0.1 1.8,1.5 q 0,1.9 -1.3,2.6 -1.2,0.7 -3.8,0.7 -4.6,0 -9.6,-3.7 -5.8,3.8 -11.3,3.8 z m -0.9,-47.6 q 2.8,-3.7 5,-7.9 2.3,-4.3 2.3,-6.7 0,-2.1 -1.7,-4.9 -1.6,-2.8 -3.2,-2.8 -1.4,0 -2.6,2.4 v 5.3 l 0.1,6.7 q 0.1,3 0.1,6.8 z m 1.8,43.4 q 1.6,0 3.9,-0.8 2.4,-0.9 3.4,-1.9 -9.2,-13.1 -12.1,-30.8 -5.3,8.5 -5.3,19.6 0,5.1 2.3,9.2 1.2,2.2 3.2,3.5 2,1.2 4.6,1.2 z"
         style="font-family:'Amatic SC';-inkscape-font-specification:'Amatic SC';text-align:center;text-anchor:middle"
         id="path1062" /><path
         d="m 600.9506,-422.15558 q -1,0 -1.6,-1 -0.6,-1 -0.6,-2.9 l -0.1,-14.8 q -0.1,-1.9 -0.1,-6.3 -0.2,-9.3 -0.2,-21 v -5.1 q -0.9,4.8 -3.1,13.5 -2.2,9 -3.1,14.8 v 0.6 l -0.3,1.9 q -0.2,2.2 -1,4.5 -1,2.4 -3.1,2.4 -3.6,0 -3.6,-9.4 0,-5.2 -1.1,-11.1 -1,-6 -3.3,-14.7 l -3,-11.2 -0.2,12 q 0,5.4 0.5,20.6 l 0.2,6.8 0.2,13.7 q 0,2.1 -1.5,3.8 -2.5,0 -3.5,-1.5 -0.9,-1.6 -0.9,-4.6 l 0.2,-8.2 q 0.3,-5.4 0.3,-8.1 l -0.2,-19.3 -0.2,-19.4 q 0,-4.3 0.2,-12.9 l 2.7,-1.6 q 0.8,0.1 1.6,1.2 0.8,1 1.8,3.3 2.5,6.2 6.5,24.8 0.6,2.6 0.8,4.3 1.2,5.8 1.7,8.8 l 1.5,7.7 0.7,-3.3 1.9,-8.2 q 1.6,-7.2 2.6,-12.6 1.1,-5.4 2.1,-11.7 1.1,-7.5 1.4,-12.5 v -0.6 q 0.2,-1.3 1.2,-2 1,-0.8 2.4,-0.8 0.9,0 1.6,0.8 0.7,0.8 0.7,1.7 0,12 0.9,35.9 0.5,11.7 0.7,22.9 0.2,5.1 0.2,12.9 0,2.3 -1.2,4.1 -1.2,1.8 -2.7,1.8 z"
         style="font-family:'Amatic SC';-inkscape-font-specification:'Amatic SC';text-align:center;text-anchor:middle"
         id="path1064" /><path
         d="m 637.25052,-423.85558 q -2.3,0 -3.4,-0.7 -1.1,-0.7 -1.1,-2.6 0,-3 -1,-10.2 l -0.4,-2.1 -9.9,-1.5 q -0.6,2.3 -1.7,9.3 -0.6,4.9 -1.9,6.5 -0.7,0.9 -2,0.9 -1.2,0 -2.2,-0.7 -1,-0.8 -1,-1.9 l 0.2,-0.5 0.1,-0.4 q 6.6,-25.7 10,-50.7 0,-0.4 0.1,-1.3 0.1,-1 0.2,-2.8 0.3,-3.7 0.6,-5.9 0.4,-2.2 1.2,-3.3 h 3.4 q 1.4,0 2.4,0.7 1,0.6 1,1.8 0,7.6 2.1,22.6 2,15.4 2,21.6 0,0.6 0.5,3.1 0.5,2.3 0.5,3 0,0.7 1,6 0.9,4.8 0.9,6.2 v 0.1 q 0,2.2 -1.6,2.8 z m -6.6,-19.2 q -0.3,-1.5 -0.3,-3.7 0,-9 -1.6,-23 l -1,-10.4 q -4.3,23.5 -5.9,35.5 1.5,1 8.8,1.6 z"
         style="font-family:'Amatic SC';-inkscape-font-specification:'Amatic SC';text-align:center;text-anchor:middle"
         id="path1066" /><path
         d="m 648.25049,-424.45558 q -1.2,0 -2.1,-0.6 -0.9,-0.6 -0.9,-1.7 0,-3.2 0.8,-7.1 0.9,-4 2.5,-9.5 l 1,-3.9 q 1.4,-5.6 1.4,-9.7 0,-2.9 -2.6,-14.3 -2.5,-11.4 -3.6,-13 v -1.1 q -1,-0.9 -1,-2.5 0,-0.9 0.9,-1.4 0.9,-0.6 2.1,-0.6 1.2,0 2,1.7 1.5,2.8 3,10.3 0.8,3.4 1.1,5.7 l 0.7,3.7 q 0,0 0.4,-2.4 l 0.3,-2 q 0.4,-2.4 0.5,-3.2 0.4,-2.7 0.4,-5.2 v -1.8 -1.5 q 0,-2.8 0.9,-4.3 1,-1.5 3.6,-2.2 l 1.8,2.4 q -0.7,1.1 -1.2,2.7 -0.4,1.6 -0.4,2.8 -0.1,0.7 -0.1,3.1 v 1.1 q -1.2,3.2 -2.5,11.2 -1.3,7.9 -1.3,11.5 0,3.1 1.3,7.9 1.4,4.7 4.1,13.1 1.8,5.4 1.8,7.9 0,1 -0.8,1.8 -0.8,0.7 -1.9,0.7 -1.7,0 -3,-3.6 -1.3,-3 -2.2,-7.6 -1.2,-5.6 -1.4,-7.5 l -0.5,-2.3 -0.9,7.4 q -0.6,5.5 -1.6,9.2 v 1.1 q 0,3.7 -2.6,3.7 z"
         style="font-family:'Amatic SC';-inkscape-font-specification:'Amatic SC';text-align:center;text-anchor:middle"
         id="path1068" /><path
         d="m 713.45017,-422.45558 q -0.6,0 -1.2,-0.2 -0.5,-0.1 -1.1,-0.1 -2.7,-15.3 -5.4,-25.6 -2.7,-10.3 -6.8,-19.4 l -2.1,3.9 q -0.9,1.7 -1,3 -0.3,3 -0.3,4.4 0,3 0.3,9.2 0.3,6.1 0.3,9.3 v 8.2 q 0,5.3 -3.4,5.3 -2.9,0 -2.9,-5.6 0,-4.4 0.6,-13.5 0.7,-8.4 0.7,-13.4 l 0.1,-8.6 v -10.4 q 0,-5.5 -0.7,-11.5 -0.7,-6.2 -0.7,-9.4 0,-1.3 0.8,-2.2 0.8,-0.9 2,-0.9 3.7,0 3.7,8.1 l -0.4,20.5 1.9,-4.9 q 3.3,-8.4 6.8,-16.6 2,-4.5 3.6,-7.1 1.7,-2.7 2.7,-2.7 1.1,0 1.9,0.8 0.9,0.7 0.9,1.8 0,1 -5.4,12.4 -5.3,10.9 -6.2,14.5 v 1.8 q 1.5,3.8 8,24.4 6.5,20.5 6.5,21.7 0,1.2 -1,2 -0.9,0.8 -2.2,0.8 z"
         style="font-family:'Amatic SC';-inkscape-font-specification:'Amatic SC';text-align:center;text-anchor:middle"
         id="path1070" /><path
         d="m 737.35008,-422.85558 q -2.6,0 -4.8,-1.7 -2.2,-1.6 -3.6,-4.4 -2.9,-6.1 -3.6,-13.3 -0.9,-6.8 -0.9,-13.1 0,-1.2 0.1,-2 v -1.8 q 0,-0.5 -0.1,-0.5 v -1.8 l 0.1,-7 q 0.1,-3.2 0.8,-10.2 0.5,-4.8 2.3,-9.3 0.7,-2 1.8,-3 1.1,-1.1 2.5,-1.1 4,0 7.2,1.5 3.2,1.4 5.4,4 2,2.5 3.4,6.2 1.4,3.6 2,7.7 0.6,4.2 0.6,8.9 v 0.8 q 0,3.1 0.1,5.6 l 0.1,5.7 q 0,28.8 -13.4,28.8 z m -0.4,-4.2 q 1.8,0 3.3,-1.4 1.5,-1.5 2.3,-4 1.9,-5.1 2.3,-11 0.5,-5.1 0.5,-8.8 0,-4.5 -0.7,-11.8 -0.6,-7.7 -0.6,-11.5 v -1.8 q -0.2,-3.8 -2.6,-6.6 -2.3,-2.8 -5.7,-2.8 -3.4,0 -4.5,3.9 -1,3.1 -1,8 0,1.9 0.1,3.2 v 2.7 l -0.2,4.6 q -0.2,2.1 -0.2,4.6 0,5.4 0.3,10.7 0.4,7.5 2,14.6 1.6,7.4 4.7,7.4 z"
         style="font-family:'Amatic SC';-inkscape-font-specification:'Amatic SC';text-align:center;text-anchor:middle"
         id="path1072" /><path
         d="m 769.34994,-425.05558 q 0,-11.5 -2.2,-23.8 -2.1,-12.3 -6.7,-30.1 -0.2,-1 -0.9,-3.1 -1.8,-5.6 -1.8,-7.1 0,-0.9 0.7,-1.6 0.8,-0.7 1.7,-0.7 1.5,0 2.8,2.5 1.3,2.4 2.4,6.5 1.1,4 2.4,10 1.2,5.7 2.9,17.5 l 0.6,3.9 1.2,8.9 q 0.4,3.7 0.7,5.3 2.1,-11 5.4,-31.8 2.7,-17.8 3.8,-24.3 h 2.2 q 0.9,0 1.6,0.7 0.7,0.6 0.7,1.5 0,3.6 -0.9,7.8 -0.8,4.1 -2.5,9.9 -1.4,5 -1.9,7.5 -0.4,2.5 -0.8,7.9 -0.8,12.1 -2.5,21.7 -1.1,5.8 -2.9,9.1 -1.8,3.3 -4.1,3.3 z"
         style="font-family:'Amatic SC';-inkscape-font-specification:'Amatic SC';text-align:center;text-anchor:middle"
         id="path1074" /><path
         d="m 805.04988,-423.35558 q -1.7,0 -2.8,-2.2 1.1,-2.1 1.1,-17 0,-3.5 -0.5,-7.6 l -0.3,-2.9 q -0.3,-2.7 -0.3,-4.1 v -2.6 q -1,-2.5 -3.7,-9.3 -2.6,-6.8 -4.2,-11.4 -1.9,-5.3 -1.9,-7.2 v -0.5 l 2.3,-1.7 q 1.7,0.2 3.6,4.4 1.6,3.7 3.5,10.6 2,6.9 2,7.3 0.4,-1.1 1.6,-7.5 1.2,-6.4 2.7,-11.3 1.7,-4.9 3.5,-4.9 1,0 1.7,0.6 0.8,0.6 0.8,1.5 0,5.1 -2.8,14.4 -3,10.1 -3,14.6 v 30.1 q 0,6.7 -3.3,6.7 z"
         style="font-family:'Amatic SC';-inkscape-font-specification:'Amatic SC';text-align:center;text-anchor:middle"
         id="path1076" /><path
         d="m 848.74977,-423.05558 q -2.3,0 -4.9,-5 -3.9,-7.5 -7.7,-24.7 -1.1,-4.7 -1.8,-8.7 -3.6,7.2 -3.6,17.4 v 18.5 q 0,2.3 -2,2.3 -1.5,0 -2.5,-0.9 -0.9,-0.8 -0.9,-2.3 v -30.3 q 0,-4.4 1,-16.2 1,-10.3 1,-16.2 0.8,-1.9 2.9,-1.9 1.3,0 2.2,0.9 0.9,0.9 0.9,2.2 v 0.3 q -1.3,2.2 -1.3,18.2 v 3.6 l 3.7,-7.3 q 3.4,-7.1 6.4,-12.2 2.8,-5 4.1,-5 1.6,0 2.7,0.7 1.2,0.7 1.2,2 l -2.4,4 q -7.5,12.1 -8.4,14 0,1.7 -0.1,3 l -0.1,3 q 0,4.3 3.4,16.1 3.5,11.7 5.8,15.5 l 1.3,1.8 q 1.9,2.6 1.9,4.6 0,1.1 -0.9,1.8 -0.8,0.8 -1.9,0.8 z"
         style="font-family:'Amatic SC';-inkscape-font-specification:'Amatic SC';text-align:center;text-anchor:middle"
         id="path1078" /><path
         d="m 871.84962,-422.85558 q -2.6,0 -4.8,-1.7 -2.2,-1.6 -3.6,-4.4 -2.9,-6.1 -3.6,-13.3 -0.9,-6.8 -0.9,-13.1 0,-1.2 0.1,-2 v -1.8 q 0,-0.5 -0.1,-0.5 v -1.8 l 0.1,-7 q 0.1,-3.2 0.8,-10.2 0.5,-4.8 2.3,-9.3 0.7,-2 1.8,-3 1.1,-1.1 2.5,-1.1 4,0 7.2,1.5 3.2,1.4 5.4,4 2,2.5 3.4,6.2 1.4,3.6 2,7.7 0.6,4.2 0.6,8.9 v 0.8 q 0,3.1 0.1,5.6 l 0.1,5.7 q 0,28.8 -13.4,28.8 z m -0.4,-4.2 q 1.8,0 3.3,-1.4 1.5,-1.5 2.3,-4 1.9,-5.1 2.3,-11 0.5,-5.1 0.5,-8.8 0,-4.5 -0.7,-11.8 -0.6,-7.7 -0.6,-11.5 v -1.8 q -0.2,-3.8 -2.6,-6.6 -2.3,-2.8 -5.7,-2.8 -3.4,0 -4.5,3.9 -1,3.1 -1,8 0,1.9 0.1,3.2 v 2.7 l -0.2,4.6 q -0.2,2.1 -0.2,4.6 0,5.4 0.3,10.7 0.4,7.5 2,14.6 1.6,7.4 4.7,7.4 z"
         style="font-family:'Amatic SC';-inkscape-font-specification:'Amatic SC';text-align:center;text-anchor:middle"
         id="path1080" /><path
         d="m 903.8495,-425.05558 q 0,-11.5 -2.2,-23.8 -2.1,-12.3 -6.7,-30.1 -0.2,-1 -0.9,-3.1 -1.8,-5.6 -1.8,-7.1 0,-0.9 0.7,-1.6 0.8,-0.7 1.7,-0.7 1.5,0 2.8,2.5 1.3,2.4 2.4,6.5 1.1,4 2.4,10 1.2,5.7 2.9,17.5 l 0.6,3.9 1.2,8.9 q 0.4,3.7 0.7,5.3 2.1,-11 5.4,-31.8 2.7,-17.8 3.8,-24.3 h 2.2 q 0.9,0 1.6,0.7 0.7,0.6 0.7,1.5 0,3.6 -0.9,7.8 -0.8,4.1 -2.5,9.9 -1.4,5 -1.9,7.5 -0.4,2.5 -0.8,7.9 -0.8,12.1 -2.5,21.7 -1.1,5.8 -2.9,9.1 -1.8,3.3 -4.1,3.3 z"
         style="font-family:'Amatic SC';-inkscape-font-specification:'Amatic SC';text-align:center;text-anchor:middle"
         id="path1082" /></g><g
       id="g16"
       transform="matrix(0.22679148,0,0,0.22679148,-13.76376,-2680.099)"
       style="fill:#332b12;fill-opacity:0.60000002"><path
         d="m 1791.37,15996.3 c -15.29,0 -27.71,14.2 -27.71,31.6 0,17.5 12.42,31.7 27.71,31.7 15.29,0 27.73,-14.2 27.73,-31.7 0,-17.4 -12.47,-31.5 -27.73,-31.5 z M 772.049,15717 c 5.066,5.3 12.11,8.3 19.463,8.3 2.224,0 4.442,-0.3 6.623,-0.7 5.797,-0.8 10.801,-4.4 13.337,-9.7 16.269,-30.8 -10.85,-116.2 -33.047,-166.2 -0.3,-0.7 -0.829,-1.9 -1.524,-3.6 -5.717,-13.7 -9.942,-22.9 -13.255,-29.2 -3.178,7.9 -6.261,15.9 -6.922,18 -3.892,14.2 -6.873,28.7 -8.932,43.4 -4.471,29.7 -4.02,112.3 24.257,139.7 z m 0.875,-459.5 c 7.024,28.1 14.91,49.7 23.921,65.7 8.067,14.4 53.488,58.4 78.67,64.5 1.408,0.3 2.855,0.5 4.303,0.6 0.869,0 1.727,-0.1 2.504,-0.5 2.954,-2 3.678,-5.2 4.892,-13.3 l 0.312,-2 c 9.795,-63.8 -45.01,-108.7 -99.926,-144.3 l -2.697,-1.7 c -6.824,-4.7 -13.993,-8.9 -21.438,-12.5 2.089,12.4 6.146,30.7 9.344,43.5 z m 700.736,994.3 c 0,12.9 12.68,23.4 28.15,23.4 15.49,0 28.27,-10.5 28.27,-23.4 0,-12.8 -12.67,-23.3 -28.27,-23.3 -15.58,0 -28.15,10.5 -28.15,23.3 z m 101.05,-422.4 c -14.78,0.3 -26.49,12.6 -26.14,27.4 0.3,13 9.93,23.9 22.83,25.8 0.39,-0.2 0.78,-0.3 1.19,-0.5 2.82,-1.2 5.98,-1.2 8.83,-0.1 14.22,-4.2 22.4,-19 18.27,-33.3 -3.25,-11.2 -13.34,-19 -24.98,-19.3 z m -287.24,-230.7 c 0,12.6 9.29,22.8 20.75,22.8 11.45,0 20.73,-10.2 20.73,-22.8 0,-12.5 -9.3,-22.7 -20.73,-22.7 -11.44,0 -20.75,10.1 -20.75,22.7 z m 161.93,8.1 c 10.3,0 18.69,-9.4 18.69,-20.9 0,-11.5 -8.39,-20.9 -18.69,-20.9 -10.3,0 -18.68,9.4 -18.68,20.9 0,11.5 8.38,20.9 18.68,20.9 z m 129.48,-164.8 c 13.54,0.2 24.73,-10.5 24.98,-24.1 0.25,-13.5 -10.51,-24.7 -24.05,-24.9 -13.54,-0.3 -24.72,10.5 -24.98,24 0,0.2 0,0.3 0,0.5 -0.11,13.4 10.65,24.3 24.05,24.5 z m -17.86,-264.1 c 0,-14.8 -12.62,-26.9 -28.16,-26.9 -15.54,0 -28.16,12.1 -28.16,26.9 0.12,10.1 6.02,19.4 15.22,23.8 h 0.32 c 2.56,0 5.03,0.9 7.08,2.5 1.81,0.3 3.67,0.5 5.53,0.5 15.51,0 28.14,-12.1 28.14,-26.8 z m -163.57,-53.6 c -13.2,-0.3 -24.19,10.1 -24.54,23.3 -0.34,13.2 10.08,24.2 23.28,24.6 0.42,0 0.84,0 1.26,0 0.43,0 0.85,0 1.26,0 0.75,-0.3 1.51,-0.4 2.29,-0.5 0.47,0 0.94,0 1.41,0 h 0.37 c 12.89,-2.9 21.03,-15.6 18.18,-28.5 -2.43,-11 -12.23,-18.8 -23.51,-18.7 z m -296.79,-847.2 c -4.09,21.3 -1.27,36.6 7.38,39.9 1.52,0.6 3.15,0.9 4.78,0.8 10.94,0 27.57,-10.6 40.03,-31.1 25.9,-42.7 31.55,-92.6 32.7,-143.1 -10.91,17.2 -23.78,35.5 -36.45,53.4 -22.33,31.7 -45.44,64.5 -48.44,80.1 z m 439.64,492.4 c 14.31,41.2 35.03,84 48.21,99.6 6.36,7.6 19.32,17.8 33.9,23.8 5.95,2.5 12.32,4 18.79,4.2 5.09,0.2 10.08,-1.4 14.05,-4.6 7.47,-6.3 11.18,-14.8 11.33,-26 0.68,-48.9 -63.98,-126.6 -91.11,-150.7 -8.59,-7.7 -36.65,-23.5 -53.14,-32.1 -0.81,15.8 3.45,44 17.97,85.8 z m -197.4,-276 -0.13,0.2 c -33.43,64.9 -47.38,116.3 -41.42,152.9 2.06,12.6 8.29,50.5 24.76,50.5 0.43,0 0.86,0 1.29,-0.1 41.56,-4.8 34.64,-102.7 31.33,-149.7 -0.62,-8.6 -1.13,-16 -1.35,-21.9 -0.71,-20.2 -1.87,-39.3 -3.12,-52.6 -4.28,7 -8.62,15.4 -11.36,20.7 z m 50.43,-108.7 1.38,0.9 c 17.59,10.4 35.79,21.2 53.8,28.8 35.74,15 64.83,13.1 74.13,-5.1 7.56,-14.7 0.6,-39.6 -27.22,-56.6 -37.15,-22.7 -89.35,-28.2 -140.23,-30.7 -11.91,-0.6 -25.67,-0.6 -38.54,-0.5 23.67,23 48.25,46.5 76.68,63.3 z m -162.99,-366.9 c 35.68,38 64.02,55.9 76.2,56.8 1,0 1.96,0.1 2.93,0.1 12.74,0 23.49,-6.2 28.51,-16.7 5.37,-11.2 2.51,-24 -7.88,-35.1 -18.13,-19.5 -36.8,-33.4 -78.59,-47.2 -18.23,-6.1 -49.7,-15.7 -70.48,-21.6 10.59,18.2 28.73,41.9 49.31,63.8 z m -409.024,-55 c 4.708,7.3 12.709,11.7 21.352,11.9 0.977,0 1.938,0.1 2.882,0.1 11.791,0 20.161,-4.3 26.201,-13.3 30.472,-45.3 -7.995,-181.6 -20.667,-208.5 l -0.221,-0.4 c -1.954,-4.2 -4.119,-8.4 -6.511,-12.4 l -7.583,23.6 c -4.409,13.7 -8.567,26.6 -10.406,32.6 -11.643,37.8 -29.07,132 -5.047,166.5 z m 35.762,-368 c -53.011,-19.5 -113.162,-41.6 -144.768,-25.5 -10.337,5.3 -17.279,14.8 -21.221,29 -4.852,17.4 4.126,30.3 8.446,36.4 0.766,1.1 1.395,2 1.806,2.7 1.194,2 7.261,8.6 34.176,8.6 14.709,0 35.634,-2 65.372,-7.8 36.028,-7 74.442,-17.5 104.795,-26.5 -15.009,-4.4 -31.331,-10.4 -48.606,-16.9 z m -405.531,738 c 3.961,9.8 12.936,15.6 27.452,17.8 1.562,0.2 3.135,0.3 4.721,0.4 7.353,0 16.565,-3.1 25.326,-17.5 12.393,-20.6 19.5,-57.9 19.483,-102.2 0,-29.8 -3.132,-52.4 -6.211,-65.2 -2.32,3.1 -4.458,6.2 -5.583,7.8 -1.409,2.1 -2.534,3.7 -3.514,5 -40.286,52.5 -74.432,122.2 -61.674,153.9 z m 172.585,-507.4 c -45.691,-4.4 -152.954,-2.3 -192.979,32 -9.36,8 -14.213,17.1 -14.825,27.7 -0.398,6.6 2.816,10.8 22.168,16.3 15.858,4.5 32.271,6.8 48.767,6.8 55.479,0 105.805,-25.5 154.826,-50.5 15.67,-7.9 30.876,-15.7 45.819,-22.3 -23.721,-4.3 -51.833,-8.9 -63.829,-10 z m 34.785,362.9 c 4.655,3.7 10.886,8.6 15.542,8.6 0.398,0 0.796,0 1.194,-0.1 7.004,-1.5 11.959,-5.6 15.568,-12.9 18.026,-36.6 -7.985,-130.9 -22.579,-161.3 -0.431,-0.9 -1.158,-2.6 -3.313,-7.5 -8.281,-19.5 -14.295,-33 -18.588,-42.2 -26.586,70.4 -41.796,172.3 12.176,215.4 z M 1032.35,13673 c 0.96,4.6 3.47,9.6 15.02,12.2 2.59,0.6 5.24,0.8 7.9,0.9 23.01,0 40.73,-22.5 51.95,-42.5 25.53,-45.5 33.55,-105.6 27.33,-132.7 -19.4,20.1 -37.61,41.3 -54.53,63.5 -48.27,63.7 -49.42,90.2 -47.67,98.6 z m -354.032,1385.8 c -37.46,16.1 -112.829,62.8 -117.373,97.6 -0.727,5.7 -0.227,14.4 12.61,24.5 3.672,3 8.288,4.6 13.039,4.6 1.552,0 3.102,-0.2 4.635,-0.4 32.617,-5.6 78.936,-62 111.392,-112.9 1.191,-1.8 4.158,-5.9 9.738,-13.6 3.112,-4.3 7.866,-10.9 12.643,-17.6 -17.298,5.9 -32.205,11.6 -46.684,17.8 z m 118.412,-134.1 c 6.096,33.5 15.305,59.6 28.162,79.5 9.126,14.2 24.852,25.3 35.387,25.3 h 0.776 c 2.981,-0.1 7.403,-1.3 11.361,-9.2 19.371,-38.7 -23.188,-108.7 -69.576,-161.2 -1.524,-1.8 -3.396,-3.8 -5.449,-6.1 -2.816,-3.1 -5.415,-6 -7.82,-8.7 -0.595,24 1.81,50.9 7.159,80.4 z m 538.12,1126.9 c -15.4,0 -27.95,13 -27.95,29 0,15.9 12.55,28.9 27.95,28.9 15.41,0 27.94,-13 27.94,-28.9 0,-16 -12.53,-29 -27.94,-29 z m 410.49,150.9 c 14.32,0 25.99,-12.7 25.99,-28.4 0,-15.7 -11.6,-28.5 -25.99,-28.5 -11.73,0 -21.66,8.6 -24.86,20.3 0.41,1.8 0.37,3.7 -0.09,5.5 -0.24,1 -0.57,1.9 -1.01,2.7 -0.1,15.7 11.56,28.4 25.96,28.4 z m 46.03,-118 c -15.27,-0.1 -29.68,-7.1 -39.26,-19 -40.68,25.4 -134.88,24.2 -139.3,24.1 -7.41,-0.1 -20.81,-1.7 -34.31,-3.3 25.44,19.6 60.36,41.8 76.74,48.9 l 4.68,2 c 11.9,5.1 25.98,11.2 38.77,15.5 7.88,-18.7 25.76,-31.8 46.51,-31.8 28.05,0 50.85,23.9 50.85,53.3 0,29.3 -22.75,53.2 -50.71,53.2 -26.97,0 -49.09,-22.2 -50.73,-50 -14.91,-4.8 -30.93,-11.7 -44.39,-17.5 l -4.65,-2 c -17.4,-7.5 -57.16,-32.3 -85.88,-55.1 1.25,15.9 1.55,31.7 0.89,47.6 -1.44,34.4 -7.01,58.6 -16.57,72.1 7.05,8.2 10.95,18.6 11,29.3 0,26.5 -23.82,48.2 -53.11,48.2 -29.29,0 -53.01,-21.6 -53.01,-48.2 0,-26.5 23.83,-48.1 53.01,-48.1 7.57,-0.1 15.06,1.4 22.05,4.3 4.02,-5.8 10.27,-22.3 11.8,-58.7 1.08,-25.3 -0.65,-49.7 -3.32,-64.7 -2.02,0.5 -4.22,1.1 -6.62,1.7 -6.2,1.6 -13.59,3.3 -21.97,5.3 l -0.64,0.1 c -28,6.3 -78.04,14.6 -117.34,3 -6.04,23.2 -26.94,39.5 -50.94,39.7 -29.11,0 -52.8,-24.2 -52.8,-53.8 0,-29.7 23.62,-53.8 52.73,-53.8 24.83,0.2 46.21,17.5 51.47,41.8 35.46,13.8 89.34,3.9 111.19,-1.1 l 0.7,-0.1 c 8.76,-2 15.62,-3.7 20.92,-5 -461.6,-520.7 -674.228,-1053.1 -632.084,-1583.3 -48.52,97.3 -79.515,209.2 -99.08,319.8 2.868,2.1 4.681,5.3 4.967,8.9 2.024,5.8 16.565,21.7 22.862,28.6 2.172,2.4 4.126,4.5 5.735,6.4 32.156,36.4 103.65,127.8 73.188,188.8 -7.007,14.1 -18.47,22.2 -32.258,22.9 -23.092,1.3 -46.467,-18.2 -58.393,-36.7 -14.66,-22.8 -25.027,-51.7 -31.725,-88.6 -0.563,-3.1 -1.076,-6.1 -1.655,-9.1 -3.461,31.2 -6.146,61.9 -8.186,91.4 2.649,3 3.757,7 2.988,10.9 -0.129,0.5 -0.283,1.1 -0.468,1.6 -0.947,2.9 -2.24,5.6 -3.842,8.1 -1.425,23.6 -2.435,46.5 -3.149,68.5 -0.944,29.5 -1.342,58.1 -1.355,85.7 15.203,2.2 29.715,11.6 41.661,19.4 l 2.635,1.6 c 25.112,16.3 56.873,38.5 79.801,66.5 26.218,31.9 36.719,66.4 31.169,102.4 l -0.276,1.9 c -1.392,9.3 -3.31,22.1 -15.693,30.4 -7.123,4.7 -15.983,5.8 -26.386,3.3 -34.409,-8.3 -84.104,-58 -94.54,-76.5 -6.501,-11.9 -11.926,-24.3 -16.203,-37.1 3.711,96.5 11.15,165.9 13.485,186.1 6.926,6.4 14.911,20.8 27.564,51.1 0.595,1.5 1.046,2.6 1.309,3.1 6.149,13.9 59.338,136.8 32.304,187.9 -6.083,12 -17.499,20.4 -30.764,22.7 -18.417,3.3 -35.002,-1.6 -47.958,-14.2 -40.187,-39.1 -34.788,-138.8 -31.373,-161.4 2.217,-15.7 5.419,-31.2 9.59,-46.5 0.879,-3.1 6.412,-17.1 8.281,-21.7 1.461,-3.7 3.563,-8.8 5.303,-12.8 0.431,-1 0.895,-2.1 1.392,-3.1 -3.313,-27.9 -21.056,-189.9 -14.709,-389.3 0.312,-10 0.71,-19.7 1.128,-29.5 -0.615,0.9 -1.243,1.7 -1.859,2.6 -3.958,5.4 -8.05,11.1 -8.896,12.4 -21.967,34.5 -78.439,115.5 -128.187,124 -13.133,2.5 -26.704,-0.9 -37.186,-9.2 -21.023,-16.5 -23.507,-34.8 -21.885,-47.2 7.965,-61.1 130.868,-116.7 132.181,-117.2 16.081,-6.9 32.63,-13.2 52.06,-19.7 0.5,-0.2 2.224,-0.9 3.613,-1.4 5.218,-2.1 9.659,-3.8 13.535,-5.1 6.379,-94 17.927,-181.9 34.505,-262.3 27.119,-131.3 67.924,-242.8 121.06,-331.5 21.428,-181.9 73.275,-363.2 154.314,-539.7 69.03,-150.3 159.27,-297.4 268.22,-437.2 5.17,-6.7 10.33,-13.2 15.5,-19.7 -60.61,20.4 -119.44,45.8 -175.9,75.9 14.8,37 0.36,112.6 -26.5,160.5 -23.44,41.8 -54.28,60.8 -86.87,53.6 -23.87,-5.2 -31.69,-20 -34.03,-31.4 -5.31,-26 12.32,-66 52.42,-118.8 4.07,-5.4 8.28,-10.7 12.39,-15.8 -36.73,23.3 -71.23,47.8 -103.667,73 -1.263,1.7 -2.922,3 -4.826,3.8 -37.572,29.5 -73.653,61 -108.092,94.1 6.889,8.5 12.65,17.9 17.131,27.9 l 0.22,0.4 c 12.278,26 57.795,175 18.815,233 -11.413,16.9 -29.073,25.2 -51.07,24.1 -16.272,-0.6 -31.274,-9 -40.387,-22.5 -14.262,-20.4 -19.253,-54.5 -14.907,-101.3 2.829,-29.3 8.376,-58.4 16.565,-86.7 1.803,-5.8 5.747,-18 9.939,-31.2 -25.445,26.5 -48.557,52.6 -69.33,77.4 -0.855,4 -3.642,7.4 -7.455,9 -28.441,34.5 -53.721,68.1 -75.902,99.6 4.06,7.2 7.754,14.5 11.067,22 6.508,14.1 13.532,30.6 17.309,39.5 1.273,3 2.484,5.9 2.75,6.5 11.762,24.5 47.277,132.5 22.48,183 -6.958,14.1 -18.223,23.2 -32.722,26.2 -16.213,3.5 -29.468,-7.1 -37.383,-13.4 -33.634,-26.8 -49.235,-72.7 -45.142,-132.7 1.181,-16.2 3.484,-32.2 6.889,-48 -35.633,57.9 -56.936,100.8 -64.506,116.7 3.043,6.2 5.237,12.8 6.527,19.6 3.06,15 4.942,30.3 5.629,45.6 1.043,19.5 2.106,69.3 -10.682,110.3 -17.131,54.8 -49.165,58.6 -66.777,55.9 -29.435,-4.4 -41.693,-20.5 -46.816,-33.2 -24.102,-59.6 55.828,-166.4 65.023,-178.3 0.612,-0.8 1.658,-2.4 2.797,-4 6.81,-9.8 13.255,-18.5 20.246,-23.2 10.469,-22.4 67.023,-138.7 173.295,-274.7 -11.893,5.5 -24.089,11.7 -36.597,18.1 -64.125,32.5 -136.813,69.5 -221.648,45.4 -13.617,-3.9 -41.927,-11.9 -40.187,-41.7 1.023,-17.5 8.909,-32.7 23.474,-45.1 37.621,-32.3 114.583,-39.7 168.255,-39.7 17.69,0 32.867,0.8 43.257,1.8 11.593,1.1 39.759,5.6 61.525,9.6 12.953,2.3 24.053,4.5 32.051,6.2 1.974,0.4 3.846,0.9 5.603,1.3 53.797,-64.4 112.766,-124.2 176.305,-178.9 -137.744,39.2 -203.013,42.3 -221.766,11.7 -0.247,-0.4 -0.595,-0.9 -1.023,-1.5 -5.471,-7.8 -19.993,-28.7 -11.995,-57.4 5.829,-20.9 17.209,-35.8 33.827,-44.3 11.495,-5.9 24.668,-8.3 38.979,-8.3 37.088,0 81.934,16.6 125.703,32.6 34.473,12.7 67.152,24.7 87.911,25 9.426,-7.4 18.885,-14.6 28.426,-21.6 117.422,-86.6 244.512,-150.7 377.782,-190.7 168.71,-204.1 319.84,-319.7 321.48,-321 5.35,-4.3 13.17,-3.5 17.47,1.9 4.3,5.3 3.45,13.1 -1.9,17.4 -0.17,0.2 -0.36,0.3 -0.55,0.5 -1.65,1.2 -150.1,114.9 -316.61,316.1 -0.97,2.5 -2.71,4.7 -4.97,6.1 -13.02,15.8 -26.12,32.2 -39.3,49.1 -65.97,84.5 -125.89,173.6 -179.29,266.7 0.03,0.5 0.03,1.1 0,1.6 -2.13,68.1 2.71,136.3 14.46,203.5 1.96,0.4 4.02,0.9 6.25,1.5 7.2,1.8 17.04,4.5 29.22,8.1 22.51,6.6 45.62,14 53.29,16.6 46.63,15.4 68.61,32 88.96,53.8 17.21,18.5 21.85,42.5 12.11,63 -9.74,20.4 -31.6,32.4 -55.66,30.6 -29.82,-2.2 -70.82,-41.4 -92.59,-64.6 -8,-8.5 -16.56,-18.4 -24.96,-28.8 26.22,107.9 65.56,207.1 105.83,290.8 h 7.97 c 7.84,-0.1 16.57,-0.2 25.43,-0.2 10.17,0 20.54,0.1 29.93,0.6 54.18,2.7 110.06,8.7 151.96,34.3 40.58,24.9 49.04,64.5 36.45,89.2 -12.51,24.3 -46.89,41.5 -105.91,16.5 -19.56,-8.2 -39.36,-19.9 -56.82,-30.3 l -1.37,-0.8 c -18.47,-11.3 -35.8,-24.3 -51.72,-39 1.27,2.4 2.55,4.8 3.82,7.1 12.33,22.6 24.7,44.2 36.93,64.6 3.2,2.7 5.42,6.4 6.28,10.5 69.57,114.6 132.19,190.8 144.83,205.8 2.39,0.9 4.98,2.2 8.1,3.8 6.05,3 13.59,7 21.24,11.3 11.8,6.6 32.92,18.8 41.93,26.8 26.81,23.9 100.21,108.6 99.4,169.7 -0.27,18.5 -7.04,33.6 -20.17,44.6 -14.47,12.2 -35.15,13.8 -58.21,4.4 -16.28,-6.6 -33.38,-18.7 -43.55,-30.8 -15.34,-18.2 -36.99,-62.4 -52.67,-107.5 -12.32,-35.4 -24.54,-81.4 -17.2,-108.9 -14.77,-17.7 -62.31,-76.6 -118.27,-163.7 0.5,9.7 0.78,17.4 0.85,19.6 0.2,5.4 0.71,12.6 1.29,20.9 4.16,59 11.91,168.7 -53.26,176.2 -10.34,1.2 -29.54,-0.9 -42.15,-28.8 -6.84,-15.1 -9.72,-32.8 -11.28,-42.3 -6.92,-42.5 7.43,-97.6 43.88,-168.3 l 0.12,-0.2 c 7.18,-13.9 14.52,-28.2 23.61,-36.9 -11,-18.6 -22.13,-38.1 -33.13,-58.4 -39.21,-71.6 -73.17,-145.8 -101.63,-222.3 -2.46,46.4 -10.41,93.7 -35.52,135 -20.13,33.2 -50.96,49.9 -74.98,40.7 -10.04,-3.9 -32.36,-18.3 -22.86,-67.9 4.01,-20.8 26.51,-52.7 52.58,-89.7 21.87,-30.9 46.49,-65.8 56.19,-90.4 -0.92,-3 -1.87,-6 -2.78,-8.9 -32.96,-109 -50.21,-215.4 -51.35,-317 -103.27,191 -191.37,424 -216.663,687.9 -6.745,70.3 -8.929,141 -6.528,211.6 38.861,190.3 124.331,368.1 248.741,517.3 80.18,95.9 152.79,151 173.02,165.6 42.62,-22.4 63.58,-99.4 61.44,-152.1 -26.76,-3.7 -45.53,-28.3 -41.89,-55.1 3.63,-26.8 28.28,-45.5 55.06,-41.9 26.76,3.7 45.52,28.3 41.89,55.1 -2.38,17.4 -13.96,32.3 -30.32,38.8 2.23,43.7 -9.43,102.3 -36.85,142.1 3.12,-1.4 6.35,-2.9 9.94,-4.2 38.62,-15.2 106.34,-72.3 117.31,-109.1 -16.03,-9.1 -25.98,-26 -26.08,-44.4 0,-28.5 23.78,-51.7 53.01,-51.7 29.24,0 53.01,23.2 53.01,51.7 0,28.4 -23.77,51.6 -53.01,51.6 -1.1,0 -2.15,0 -3.13,-0.1 -7.52,25.1 -30.08,50.5 -49.41,68.6 -26.84,25.2 -59.26,47.3 -82.6,56.5 -4.51,1.8 -8.74,3.7 -12.81,5.6 -6.55,3.1 -13.31,5.8 -20.24,8.1 23.1,10.8 47.1,19.6 71.7,26.3 37.57,10 76.2,9.4 96.2,7.2 8.67,-25.8 36.66,-39.8 62.52,-31.1 25.85,8.7 39.78,36.7 31.11,62.5 -8.67,25.9 -36.66,39.8 -62.52,31.1 -16.86,-5.6 -29.38,-19.9 -32.77,-37.4 -27.17,2.5 -66.27,0.8 -100.84,-8.2 -13.81,-3.7 -27.43,-8.1 -40.78,-13.2 35.84,39.9 46.16,78.4 58.09,122.9 1.05,3.9 2.12,7.9 3.21,11.9 23.47,0.6 42.38,20.9 42.38,45.7 0,25.2 -19.53,45.7 -43.53,45.7 -24,0 -43.54,-20.5 -43.54,-45.7 -0.12,-15.7 7.7,-30.3 20.78,-39 -1.11,-4.1 -2.21,-8.1 -3.32,-12.1 -11.59,-43.5 -20.84,-77.7 -53.26,-113.5 -4.61,-5.1 -11.1,-11.4 -17.89,-17.7 7.39,30.6 11.09,60.4 6.15,97.9 -1.99,15 -9.94,43.6 -19.79,61.8 9.78,9.2 15.29,22 15.23,35.4 0,26.3 -20.45,47.6 -45.59,47.6 -25.13,0 -45.59,-21.3 -45.59,-47.6 0,-26.2 20.44,-47.6 45.59,-47.6 2.78,0 5.55,0.3 8.28,0.8 7.56,-13.4 15.37,-39 17.3,-53.7 6.34,-48.2 -2.98,-82 -16.31,-127.5 -17.73,-12.5 -93.47,-68.2 -179.48,-171 -98.27,-117 -173.047,-252 -220.245,-397.3 49.034,418.2 257.935,836.5 623.915,1247.9 9.23,-12.1 23.85,-34.8 27.55,-47 10.59,-35.1 10.55,-64.4 -0.3,-96.1 -28.01,-3.1 -48.25,-28.2 -45.2,-56.3 3.06,-28 28.24,-48.2 56.26,-45.1 28.01,3 48.25,28.2 45.19,56.2 -2.01,18.5 -14,34.5 -31.25,41.6 11.02,35 10.64,68.5 -0.91,106.8 -4.31,14.3 -17.03,34.1 -22.29,41.9 -1.66,2.4 -3.18,4.7 -4.76,6.9 17.15,2.4 38.31,5.2 47.12,5.3 40.53,0.7 106.11,-5.7 127.55,-21.4 -1.31,-5 -1.97,-10.1 -1.97,-15.3 0,-31.1 23.58,-56.5 52.56,-56.5 28.99,0 52.58,25.4 52.58,56.5 0,31.1 -23.64,56.5 -52.63,56.5"
         style="fill:#332b12;fill-opacity:0.60000002;fill-rule:nonzero;stroke:none"
         id="path18" /></g><g
       id="g20"
       transform="matrix(0.22679339,0,0,0.22679339,223.90492,-2680.099)"
       style="fill:#332b12;fill-opacity:0.60000002"><path
         d="m 5270.95,13885.2 c -0.61,-10.7 -5.47,-19.8 -14.83,-27.8 -40.02,-34.3 -147.29,-36.4 -192.97,-32 -11.99,1.2 -40.1,5.7 -63.78,10.1 14.91,6.6 30.15,14.3 45.83,22.3 62.94,32 128.12,65.1 203.59,43.7 19.39,-5.6 22.61,-9.7 22.21,-16.3 z m -92.77,448.3 c 8.71,14.5 17.98,17.5 25.33,17.5 1.58,0 3.16,-0.1 4.72,-0.4 14.52,-2.1 23.49,-8 27.45,-17.8 12.8,-31.6 -21.35,-101.4 -61.68,-153.9 -0.97,-1.3 -2.1,-2.9 -3.51,-5 -1.12,-1.6 -3.31,-4.7 -5.58,-7.8 -3.08,12.8 -6.21,35.3 -6.21,65.2 0,44.4 7.11,81.7 19.5,102.2 z m -362.67,-371.9 c 6.05,9 14.41,13.3 26.2,13.3 0.95,0 1.91,0 2.9,-0.1 8.64,-0.1 16.64,-4.6 21.34,-11.8 24.04,-34.5 6.63,-128.8 -5.05,-166.5 -1.84,-5.9 -6.01,-18.9 -10.42,-32.6 -2.59,-8 -5.24,-16.3 -7.55,-23.5 -2.39,4 -4.58,8.1 -6.53,12.3 l -0.22,0.5 c -12.66,26.8 -51.04,163 -20.66,208.4 z m 70.85,-323.2 c 84.24,16.4 97.74,2.2 99.56,-0.8 0.41,-0.7 1.04,-1.7 1.81,-2.7 4.32,-6.2 13.25,-19.1 8.46,-36.5 -3.95,-14.1 -10.9,-23.6 -21.22,-28.9 -31.61,-16.2 -91.74,6 -144.78,25.5 -17.3,6.4 -33.6,12.4 -48.61,17 30.36,8.9 68.77,19.3 104.8,26.4 z m -450.68,337.4 c -41.8,13.8 -60.48,27.7 -78.59,47.2 -10.4,11.1 -13.26,23.9 -7.89,35.2 4.97,10.4 15.79,16.6 28.5,16.6 0.99,0 1.97,0 2.94,-0.1 12.26,-0.9 40.6,-18.8 76.29,-56.8 20.57,-21.9 38.71,-45.5 49.23,-63.6 -20.86,5.8 -52.22,15.5 -70.47,21.5 z m -103.6,346.3 c -50.89,2.5 -103.08,8 -140.24,30.7 -27.82,17 -34.78,41.9 -27.22,56.6 5.16,10.1 16.35,15.2 31.38,15.2 12.15,0 26.79,-3.4 42.75,-10.1 18.03,-7.6 36.22,-18.4 53.82,-28.8 l 1.37,-0.8 c 28.42,-16.9 53.01,-40.3 76.7,-63.3 -12.9,-0.1 -26.64,-0.1 -38.53,0.5 z m -220.31,393.7 c -27.09,24.1 -91.75,101.8 -91.12,150.7 0.17,11.2 3.86,19.7 11.34,26 3.96,3.2 8.95,4.8 14.04,4.6 6.48,-0.2 12.86,-1.7 18.8,-4.3 14.58,-5.9 27.53,-16.2 33.9,-23.7 13.17,-15.6 33.89,-58.5 48.2,-99.7 14.53,-41.8 18.79,-70 17.93,-85.8 -16.45,8.6 -44.5,24.5 -53.09,32.2 z m 248.11,-18.8 c 0.43,0.1 0.86,0.1 1.29,0.1 16.57,0 22.7,-37.9 24.76,-50.5 5.96,-36.6 -7.97,-88 -41.42,-152.9 l -0.15,-0.3 c -2.73,-5.2 -7.06,-13.7 -11.34,-20.6 -1.25,13.3 -2.4,32.5 -3.12,52.7 -0.22,5.8 -0.73,13.2 -1.35,21.8 -3.31,47 -10.21,144.9 31.33,149.7 z m 174.57,-410.4 c 12.46,20.6 29.08,31.2 40.01,31.2 1.63,0 3.26,-0.3 4.79,-0.8 8.64,-3.3 11.48,-18.7 7.39,-40 -3,-15.6 -26.13,-48.3 -48.47,-80 -12.66,-18 -25.53,-36.2 -36.45,-53.5 1.16,50.5 6.78,100.5 32.73,143.1 z m -348.98,1988.5 c 15.56,0 28.24,-10.5 28.24,-23.3 0,-12.9 -12.68,-23.3 -28.24,-23.3 -15.57,0 -28.27,10.4 -28.27,23.3 0,12.8 12.68,23.3 28.27,23.3 z m 717.03,-1048.7 -2.71,1.7 c -54.91,35.6 -109.71,80.5 -99.92,144.2 l 0.31,2.1 c 1.22,8 1.94,11.3 4.97,13.2 0.78,0.4 1.65,0.6 2.51,0.5 1.46,0 2.91,-0.2 4.32,-0.6 25.16,-6 70.59,-50.1 78.66,-64.4 9.07,-16.1 16.9,-37.7 23.92,-65.8 3.31,-13 7.27,-31.1 9.44,-43.5 -7.48,3.7 -14.67,7.9 -21.5,12.6 z m 6.27,322.2 c -22.19,50 -49.31,135.5 -33.13,166.2 2.54,5.3 7.55,9 13.34,9.8 2.21,0.4 4.45,0.6 6.7,0.6 7.34,0.1 14.39,-2.9 19.47,-8.2 28.28,-27.5 28.73,-110 24.15,-139.8 -2.05,-14.6 -5.02,-29.1 -8.89,-43.3 -0.68,-2.1 -3.77,-10.2 -6.96,-18.1 -3.22,6.3 -7.52,15.6 -13.25,29.2 -0.59,1.7 -1.13,3 -1.43,3.6 z m -594.84,-400.4 c 0.1,-13.3 -10.59,-24.1 -23.89,-24.2 -13.29,-0.1 -24.15,10.6 -24.25,23.9 -0.08,11.3 7.72,21.1 18.74,23.6 h 0.38 c 0.46,0 0.94,0 1.41,0 0.77,0.1 1.54,0.3 2.28,0.5 0.42,0 0.83,0 1.26,0 13.19,0 23.93,-10.6 24.07,-23.8 z m -159.49,2.8 c -15.52,0 -28.16,12 -28.16,26.8 0,14.8 12.62,26.8 28.16,26.8 1.85,0 3.71,-0.2 5.53,-0.5 2.04,-1.5 4.51,-2.4 7.07,-2.5 h 0.32 c 9.2,-4.4 15.1,-13.6 15.22,-23.8 0,-14.8 -12.63,-26.8 -28.14,-26.8 z m -46.04,241.9 c -13.54,-0.2 -24.71,10.5 -24.98,24.1 -0.25,13.5 10.51,24.7 24.05,25 13.54,0.2 24.72,-10.6 24.98,-24.1 0,-0.2 0.01,-0.3 0.01,-0.5 0.11,-13.4 -10.66,-24.3 -24.06,-24.5 z m 110.79,192.9 c 0,11.6 8.38,20.9 18.69,20.9 10.3,0 18.69,-9.3 18.69,-20.9 0,-11.5 -8.39,-20.9 -18.69,-20.9 -10.31,0 -18.69,9.4 -18.69,20.9 z m 159.87,35.6 c 11.46,0 20.75,-10.2 20.75,-22.7 0,-12.6 -9.29,-22.8 -20.75,-22.8 -11.44,0 -20.72,10.2 -20.72,22.8 0,12.5 9.34,22.7 20.72,22.7 z m -240.46,234.7 c -0.35,-14.4 -12.3,-25.8 -26.7,-25.4 -14.39,0.3 -25.78,12.3 -25.44,26.7 0.28,11.5 8.17,21.5 19.36,24.5 2.85,-1.1 6,-1 8.82,0.1 0.41,0.2 0.81,0.4 1.2,0.6 13.15,-1.9 22.89,-13.2 22.76,-26.5 z m -242.69,140.2 c -15.29,0 -27.73,14.2 -27.73,31.7 0,17.4 12.44,31.6 27.73,31.6 15.29,0 27.72,-14.2 27.72,-31.6 0,-17.5 -12.43,-31.7 -27.72,-31.7 z m 46.12,149.3 c -14.33,0 -25.99,12.7 -25.99,28.4 0,15.7 11.6,28.5 25.99,28.5 14.39,0 25.97,-12.8 25.99,-28.4 -0.44,-0.9 -0.77,-1.8 -1.01,-2.7 -0.46,-1.8 -0.5,-3.7 -0.1,-5.6 -3.23,-11.7 -13.16,-20.2 -24.88,-20.2 z m 410.4,-36.2 c 15.41,0 27.95,-13 27.95,-28.9 0,-16 -12.54,-28.9 -27.95,-28.9 -15.41,0 -27.94,13 -27.94,28.9 0,16 12.53,28.9 27.94,28.9 z m 545.36,-1265.1 c -2.38,2.7 -4.97,5.6 -7.8,8.7 -2.07,2.3 -3.94,4.3 -5.46,6 -46.4,52.6 -88.96,122.6 -69.58,161.3 3.97,7.9 8.4,9.1 11.38,9.2 h 0.77 c 10.59,0 26.26,-11.1 35.39,-25.3 12.85,-20 22.07,-46.1 28.16,-79.6 5.25,-29.4 7.65,-56.4 7.14,-80.3 z m 77.25,214.3 c 5.56,7.6 8.51,11.7 9.71,13.6 32.45,50.9 78.77,107.3 111.38,112.8 1.54,0.3 3.09,0.4 4.64,0.4 4.75,0.1 9.37,-1.6 13.05,-4.6 12.83,-10 13.26,-18.7 12.59,-24.4 -4.54,-34.8 -79.91,-81.5 -117.35,-97.6 -14.49,-6.3 -29.42,-11.9 -46.7,-17.8 4.71,6.7 9.48,13.3 12.59,17.6 z m -394.88,-1415 c 11.2,20 28.92,42.4 51.93,42.4 2.66,0 5.31,-0.3 7.9,-0.9 11.6,-2.5 14.07,-7.5 15.03,-12.1 1.66,-8.4 0.59,-34.9 -47.68,-98.6 -16.91,-22.2 -35.12,-43.4 -54.53,-63.5 -6.21,27.1 1.72,87.2 27.27,132.7 z m 438.57,379.1 c -14.6,30.4 -40.62,124.6 -22.59,161.3 3.61,7.3 8.57,11.4 15.58,12.9 0.39,0.1 0.78,0.1 1.19,0.1 4.67,0 10.89,-5 15.53,-8.7 53.97,-43.1 38.77,-145 12.1,-215.3 -4.3,9.2 -10.29,22.6 -18.62,42.3 -2.13,4.8 -2.85,6.5 -3.19,7.4 z m 236.88,-97.4 c -84.84,24.2 -157.52,-12.8 -221.65,-45.4 -12.51,-6.3 -24.7,-12.5 -36.59,-18 106.27,135.9 162.82,252.3 173.29,274.7 7.06,4.7 13.44,13.4 20.25,23.2 1.12,1.7 2.2,3.2 2.8,4 9.18,11.9 89.12,118.6 65.02,178.3 -5.11,12.7 -17.38,28.7 -46.82,33.1 -17.6,2.7 -49.69,-1.1 -66.77,-55.9 -12.8,-40.9 -11.74,-90.7 -10.69,-110.3 0.69,-15.3 2.58,-30.5 5.63,-45.5 1.29,-6.8 3.48,-13.4 6.53,-19.6 -7.57,-15.9 -28.87,-58.9 -64.51,-116.8 3.41,15.9 5.7,31.9 6.89,48.1 4.1,59.9 -11.51,105.8 -45.14,132.7 -7.92,6.3 -21.16,16.9 -37.39,13.4 -14.46,-3.1 -25.75,-12.1 -32.72,-26.3 -24.84,-50.4 10.72,-158.5 22.46,-182.9 0.27,-0.6 1.48,-3.5 2.76,-6.4 3.75,-8.9 10.78,-25.4 17.3,-39.5 3.31,-7.6 7.01,-14.9 11.09,-22.1 -22.19,-31.6 -47.46,-65.2 -75.9,-99.7 -3.82,-1.5 -6.61,-4.9 -7.46,-8.9 -20.77,-24.9 -43.88,-50.9 -69.33,-77.4 4.25,13.1 8.17,25.3 9.94,31.2 8.2,28.3 13.74,57.3 16.57,86.7 4.4,46.7 -0.6,80.8 -14.91,101.3 -9.11,13.5 -24.12,21.8 -40.39,22.4 -22.01,1.2 -39.66,-7.1 -51.07,-24.1 -38.98,-58 6.62,-206.9 18.83,-232.9 l 0.21,-0.5 c 4.49,-9.9 10.25,-19.3 17.13,-27.8 -34.44,-33.2 -70.52,-64.6 -108.09,-94.1 -1.9,-0.9 -3.56,-2.2 -4.82,-3.8 -32.38,-25.2 -66.93,-49.7 -103.68,-73.1 4.16,5.2 8.29,10.5 12.4,15.9 40.08,52.8 57.72,92.7 52.41,118.7 -2.34,11.5 -10.16,26.3 -34.03,31.5 -32.58,7.2 -63.43,-11.8 -86.87,-53.6 -26.87,-48 -41.31,-123.5 -26.51,-160.5 -56.41,-30.2 -115.2,-55.6 -175.79,-76.1 5.16,6.4 10.32,13 15.49,19.6 108.95,139.8 199.19,287 268.22,437.3 81.04,176.4 132.88,357.8 154.31,539.6 53.2,88.7 93.94,200.2 121.06,331.6 16.56,80.3 28.16,168.3 34.52,262.2 3.86,1.3 8.28,3 13.52,5.1 l 3.61,1.5 c 19.44,6.5 35.98,12.8 52.08,19.7 1.23,0.5 124.25,56 132.16,117.2 1.66,12.4 -0.86,30.7 -21.88,47.2 -10.48,8.3 -24.05,11.6 -37.19,9.1 -49.7,-8.4 -106.22,-89.4 -128.19,-123.9 -0.84,-1.4 -4.97,-7 -8.86,-12.4 -0.61,-0.9 -1.26,-1.7 -1.88,-2.6 0.41,9.8 0.81,19.6 1.11,29.4 6.36,199.5 -11.41,361.4 -14.7,389.3 0.5,1.1 0.96,2.1 1.39,3.1 1.66,4 3.84,9.2 5.31,12.8 1.87,4.7 7.4,18.7 8.27,21.8 4.17,15.3 7.38,30.8 9.61,46.5 3.47,22.6 8.8,122.2 -31.47,161.3 -12.95,12.7 -29.55,17.6 -47.95,14.2 -13.29,-2.2 -24.73,-10.5 -30.85,-22.5 -27.04,-51.2 26.15,-174.1 32.3,-187.9 0.26,-0.6 0.71,-1.7 1.33,-3.2 12.04,-28.8 19.96,-44 27.53,-50.9 2.32,-20.1 9.77,-89.5 13.5,-186.3 -4.28,12.8 -9.7,25.3 -16.21,37.2 -10.43,18.5 -60.12,68.2 -94.54,76.4 -10.38,2.5 -19.26,1.4 -26.38,-3.4 -12.41,-8.3 -14.3,-21 -15.67,-30.3 l -0.3,-2 c -5.55,-36 4.97,-70.4 31.18,-102.4 22.92,-27.9 54.66,-50.2 79.79,-66.4 l 2.64,-1.7 c 11.94,-7.7 26.5,-17.2 41.66,-19.4 0,-27.5 -0.41,-56.2 -1.36,-85.7 -0.71,-21.9 -1.65,-44.7 -3.14,-68.4 -1.6,-2.5 -2.89,-5.2 -3.84,-8.1 -0.19,-0.5 -0.34,-1.1 -0.46,-1.7 -0.78,-3.9 0.32,-7.9 2.96,-10.9 -2.03,-29.6 -4.71,-60.2 -8.16,-91.4 -0.51,3 -1.03,6 -1.66,9.1 -6.62,36.8 -17.06,65.8 -31.7,88.6 -11.87,18.5 -35.06,37.9 -58.25,36.7 -13.78,-0.7 -25.23,-8.9 -32.25,-22.9 -30.47,-60.9 41.03,-152.4 73.19,-188.9 1.66,-1.8 3.57,-3.9 5.73,-6.3 6.28,-6.9 20.84,-22.9 22.86,-28.6 0.28,-3.6 2.1,-6.8 4.97,-9 -19.53,-110.4 -50.56,-222.4 -99.08,-319.7 42.06,530.1 -170.49,1062.6 -632.09,1583.2 5.3,1.4 12.17,3 20.93,5 l 0.7,0.2 c 21.84,4.9 75.75,14.9 111.19,1.1 5.33,-24.2 26.63,-41.5 51.38,-41.7 29.11,0 52.79,24.2 52.79,53.8 0,29.7 -23.68,53.8 -52.79,53.8 -24.03,-0.1 -44.96,-16.4 -51.01,-39.7 -39.36,11.6 -89.45,3.5 -117.28,-2.9 l -0.61,-0.1 c -8.29,-2 -15.76,-3.7 -21.96,-5.3 -2.47,-0.6 -4.68,-1.2 -6.62,-1.7 -2.67,15 -4.39,39.4 -3.31,64.7 1.52,36.4 7.76,52.8 11.79,58.7 6.99,-2.9 14.48,-4.4 22.05,-4.3 29.27,0 53.09,21.5 53.09,48.1 0,26.7 -23.82,48.2 -53.09,48.2 -29.27,0 -53.12,-21.6 -53.12,-48.2 0.06,-10.7 3.96,-21.1 11.01,-29.3 -9.56,-13.5 -15.12,-37.7 -16.56,-72.1 -0.67,-15.9 -0.37,-31.7 0.89,-47.5 -28.7,22.7 -68.48,47.5 -85.89,55 l -4.66,2 c -13.47,5.8 -29.55,12.7 -44.38,17.5 -1.65,27.8 -23.76,50 -50.72,50 -28.05,0 -50.84,-23.9 -50.84,-53.3 0,-29.4 22.79,-53.3 50.84,-53.3 20.76,0 38.63,13.1 46.51,31.8 12.79,-4.3 26.85,-10.4 38.76,-15.5 l 4.69,-2 c 16.37,-7.1 51.36,-29.2 76.74,-48.9 -13.5,1.8 -26.91,3.3 -34.31,3.3 -4.39,0 -98.57,1.3 -139.25,-24.1 -9.58,11.9 -23.99,18.9 -39.26,19 -28.99,0 -52.59,-25.3 -52.59,-56.5 0,-31.1 23.6,-56.5 52.59,-56.5 28.99,0 52.56,25.4 52.56,56.5 0,5.2 -0.67,10.4 -1.97,15.4 21.38,15.6 86.95,22 127.56,21.3 8.8,-0.1 29.96,-2.8 47.11,-5.3 -1.58,-2.2 -3.17,-4.5 -4.76,-6.9 -5.26,-7.8 -17.98,-27.6 -22.29,-41.9 -11.6,-38.3 -11.93,-71.8 -0.91,-106.7 -25.95,-10.8 -38.28,-40.5 -27.54,-66.5 10.74,-25.9 40.48,-38.2 66.43,-27.5 25.94,10.8 38.26,40.5 27.52,66.4 -7.1,17.2 -22.97,29.1 -41.42,31.1 -10.84,31.7 -10.86,61 -0.29,96.1 3.7,12.3 18.32,34.9 27.55,47.1 365.98,-411.5 574.83,-829.8 623.91,-1248 -47.13,145.3 -121.82,280.2 -219.98,397.3 -86.01,102.7 -161.75,158.5 -179.47,170.9 -13.34,45.5 -22.66,79.3 -16.32,127.5 1.93,14.7 9.74,40.3 17.3,53.7 2.73,-0.5 5.51,-0.8 8.28,-0.8 25.14,0 45.59,21.4 45.59,47.6 0,26.3 -20.45,47.6 -45.59,47.6 -25.14,0 -45.58,-21.3 -45.58,-47.6 -0.06,-13.4 5.45,-26.2 15.23,-35.4 -9.94,-18.2 -17.8,-46.8 -19.88,-61.8 -4.97,-37.5 -1.24,-67.3 6.14,-97.9 -6.78,6.3 -13.25,12.6 -17.88,17.7 -32.42,35.7 -41.62,70 -53.25,113.4 -1.07,4 -2.16,8.1 -3.31,12.2 13.07,8.7 20.89,23.3 20.78,39 0,25.2 -19.53,45.7 -43.54,45.7 -24,0 -43.53,-20.5 -43.53,-45.7 0,-24.9 18.9,-45.1 42.37,-45.7 1.1,-4 2.17,-8 3.21,-11.9 11.93,-44.5 22.27,-83 58.1,-122.9 -13.36,5.1 -26.96,9.5 -40.77,13.2 -34.54,9 -73.69,10.7 -100.85,8.3 -5.21,26.7 -31.11,44.2 -57.85,39 -26.75,-5.3 -44.21,-31.2 -39,-57.9 5.21,-26.7 31.11,-44.2 57.85,-39 17.43,3.4 31.69,15.9 37.34,32.7 19.88,2.2 58.63,2.7 96.2,-7.2 24.6,-6.7 48.59,-15.5 71.69,-26.3 -6.93,-2.3 -13.7,-5 -20.25,-8.1 -4.08,-1.9 -8.29,-3.8 -12.79,-5.6 -23.34,-9.2 -55.76,-31.3 -82.58,-56.5 -19.35,-18.1 -41.92,-43.5 -49.44,-68.6 -1.02,0.1 -2.07,0.1 -3.13,0.1 -29.22,0 -53.01,-23.2 -53.01,-51.6 0,-28.5 23.78,-51.7 53.01,-51.7 29.24,0 53.01,23.2 53.01,51.7 -0.09,18.4 -10.04,35.4 -26.07,44.5 10.97,36.7 78.69,93.8 117.3,108.9 3.55,1.4 6.78,2.9 9.94,4.3 -27.41,-39.8 -39.08,-98.4 -36.84,-142.1 -25.09,-10 -37.3,-38.5 -27.27,-63.6 10.02,-25 38.49,-37.2 63.58,-27.2 25.08,10 37.29,38.5 27.27,63.5 -6.54,16.4 -21.38,28 -38.84,30.4 -2.14,52.8 18.81,129.7 61.44,152.1 20.22,-14.5 92.76,-69.6 173.01,-165.6 124.41,-149.2 209.88,-327 248.75,-517.3 2.39,-70.5 0.22,-141.1 -6.51,-211.4 -25.27,-264 -113.4,-497.1 -216.68,-688 -1.2,101.6 -18.44,208 -51.35,316.9 -0.9,2.9 -1.86,5.9 -2.79,8.9 9.71,24.6 34.33,59.5 56.2,90.4 26.05,37 48.57,68.9 52.57,89.7 9.51,49.6 -12.81,64 -22.85,67.9 -24.02,9.2 -54.86,-7.5 -74.99,-40.6 -25.11,-41.5 -33.13,-88.7 -35.51,-135.1 -28.52,76.5 -62.54,150.7 -101.8,222.2 -11.04,20.3 -22.09,39.8 -33.13,58.4 9.1,8.8 16.43,23 23.59,36.9 l 0.15,0.3 c 36.44,70.7 50.79,125.7 43.87,168.2 -1.56,9.5 -4.44,27.3 -11.29,42.4 -12.61,27.8 -31.82,30 -42.14,28.8 -65.17,-7.6 -57.42,-117.3 -53.26,-176.2 0.58,-8.3 1.1,-15.6 1.3,-21 0,-2.2 0.34,-9.9 0.84,-19.5 -55.95,87.1 -103.5,145.9 -118.26,163.6 7.33,27.6 -4.97,73.6 -17.19,109 -15.7,45.1 -37.35,89.3 -52.69,107.5 -10.17,12 -27.27,24.1 -43.55,30.7 -23.06,9.4 -43.73,7.9 -58.21,-4.4 -13.12,-11 -19.88,-26 -20.16,-44.6 -0.85,-61 72.55,-145.7 99.4,-169.6 9.01,-8.1 30.13,-20.3 41.92,-26.9 7.66,-4.2 15.2,-8.3 21.24,-11.3 3.07,-1.5 5.71,-2.8 8.1,-3.8 12.62,-14.9 75.29,-91.1 144.83,-205.8 0.86,-4.1 3.08,-7.8 6.28,-10.4 12.23,-20.5 24.6,-42.1 36.93,-64.6 1.27,-2.4 2.54,-4.7 3.82,-7.1 -15.92,14.6 -33.25,27.7 -51.71,38.9 l -1.36,0.8 c -17.46,10.4 -37.25,22.1 -56.84,30.4 -59.02,24.8 -93.39,7.7 -105.89,-16.6 -12.67,-24.7 -4.22,-64.3 36.37,-89.1 41.89,-25.6 97.73,-31.7 151.95,-34.4 9.41,-0.4 19.77,-0.6 29.95,-0.6 8.85,0 17.58,0.1 25.41,0.2 h 7.98 c 40.27,-83.6 79.62,-182.8 105.83,-290.7 -8.28,10.3 -16.96,20.2 -24.96,28.7 -21.77,23.2 -62.76,62.4 -92.59,64.6 -24.05,1.8 -45.9,-10.2 -55.66,-30.6 -9.76,-20.4 -5.1,-44.4 12.11,-63 20.34,-21.8 42.32,-38.4 88.98,-53.8 7.65,-2.5 30.75,-9.9 53.29,-16.6 12.16,-3.6 21.99,-6.3 29.2,-8.1 2.22,-0.5 4.29,-1.1 6.25,-1.5 11.24,-65.8 16.93,-134.2 14.46,-203.4 -0.03,-0.6 -0.03,-1.2 0,-1.7 -53.27,-92.8 -113.02,-181.7 -178.78,-266 -13.34,-17.1 -26.59,-33.7 -39.75,-49.7 -2.26,-1.4 -4,-3.6 -4.98,-6 -166.4,-201.1 -315,-315 -316.62,-316.2 -5.57,-4 -6.85,-11.8 -2.85,-17.4 4,-5.5 11.75,-6.8 17.33,-2.8 0.18,0.1 0.37,0.2 0.54,0.4 1.67,1.2 152.78,116.9 321.49,321 133.28,40 260.35,104.1 377.78,190.7 9.54,7.1 19,14.2 28.4,21.6 20.78,-0.3 53.46,-12.3 87.93,-25 43.77,-16.1 88.62,-32.6 125.71,-32.6 14.31,0 27.48,2.5 38.97,8.3 16.57,8.5 28,23.4 33.83,44.3 8.01,28.7 -6.52,49.6 -11.99,57.4 -0.44,0.6 -0.78,1.1 -1.03,1.5 -13.68,22.3 -53.55,26.2 -125.47,12.2 -32.76,-6.4 -67.22,-15.5 -96.08,-23.8 63.48,54.7 122.38,114.5 176.12,178.8 1.75,-0.4 3.62,-0.8 5.59,-1.3 8,-1.7 19.1,-3.9 32.05,-6.2 21.81,-3.9 49.93,-8.5 61.53,-9.6 10.38,-1 25.55,-1.8 43.26,-1.8 53.66,0 130.63,7.4 168.26,39.7 14.56,12.5 22.44,27.6 23.47,45.1 1.63,30 -26.67,38.1 -40.31,41.9"
         style="fill:#332b12;fill-opacity:0.60000002;fill-rule:nonzero;stroke:none"
         id="path22" /></g></g></svg>
