<?xml version="1.0" encoding="UTF-8" standalone="no"?>
<svg
   version="1.1"
   id="svg2"
   xml:space="preserve"
   width="110"
   height="110"
   viewBox="0 0 110 110"
   sodipodi:docname="smrcky.svg"
   inkscape:version="1.1.2 (08b2f3d93c, 2022-04-05)"
   xmlns:inkscape="http://www.inkscape.org/namespaces/inkscape"
   xmlns:sodipodi="http://sodipodi.sourceforge.net/DTD/sodipodi-0.dtd"
   xmlns="http://www.w3.org/2000/svg"
   xmlns:svg="http://www.w3.org/2000/svg"
   xmlns:rdf="http://www.w3.org/1999/02/22-rdf-syntax-ns#"
   xmlns:cc="http://creativecommons.org/ns#"
   xmlns:dc="http://purl.org/dc/elements/1.1/"><metadata
     id="metadata8"><rdf:RDF><cc:Work
         rdf:about=""><dc:format>image/svg+xml</dc:format><dc:type
           rdf:resource="http://purl.org/dc/dcmitype/StillImage" /></cc:Work></rdf:RDF></metadata><defs
     id="defs6" /><sodipodi:namedview
     pagecolor="#ffffff"
     bordercolor="#666666"
     borderopacity="1"
     objecttolerance="10"
     gridtolerance="10"
     guidetolerance="10"
     inkscape:pageopacity="0"
     inkscape:pageshadow="2"
     inkscape:window-width="1892"
     inkscape:window-height="791"
     id="namedview4"
     inkscape:pagecheckerboard="0"
     showgrid="false"
     inkscape:zoom="2.2822024"
     inkscape:cx="119.84038"
     inkscape:cy="-5.6962519"
     inkscape:window-x="1529"
     inkscape:window-y="181"
     inkscape:window-maximized="0"
     inkscape:current-layer="g10"
     width="110px" /><g
     id="g10"
     inkscape:groupmode="layer"
     inkscape:label="ink_ext_XXXXXX"
     transform="matrix(1.3333333,0,0,-1.3333333,0,112)"><path
       d="m 78.149243,34.110403 c -15.0231,0.7887 -22.0121,6.6098 -28.059,19.9726 5.2539,-5.1757 12.739,-8.0078 20.098,-7.6058 3.25,0.1801 7.3399,2.157 6.727,5.364 -0.5672,2.9918 -4.4922,3.5579 -7.4961,4.0309 -9.161,1.4301 -14.086,7.4141 -18.6488,14.7691 -1.109,1.7821 -9.4223,17.2149 -11.5942,10.5391 -4.418,-13.55 -13.6012,-23.3781 -28.1398,-25.984 -3.4652604,-0.6172 -8.0082304,-1.7301 -8.1531504,-5.2422 -0.14805,-3.5308 4.47304,-5.055 8.0039504,-4.9019 8.766,0.375 17.325,4.2851 23.3519,10.6601 -6.6488,-7.391 -7.734,-15.1171 -16.8629,-20.7543 -4.5859,-2.8277 -9.6800604,-2.7929 -14.4808404,-4.8046 -3.46523798,-1.4532 -4.48399,-7.0661 0,-8.0864 10.8238404,-2.4527 22.0777404,6.1723 28.6918404,13.9461 1.9839,2.3352 3.8281,5.0313 5.4921,7.8981 -0.598,-12.2461 -0.9851,-24.5231 -0.8601,-36.59417 0.0551,-6.21485 9.614,-6.21875 9.6371,0 0.043,12.44917 -0.316,25.11327 -0.941,37.73517 1.132,-2.868 2.5699,-5.6641 4.484,-8.332 6.5898,-9.168 20.1449,-15.95 30.9808,-10.8129 4.2262,2.0039 1.8121,7.9918 -2.2308,8.2031"
       style="fill:#231f20;fill-opacity:1;fill-rule:nonzero;stroke:none;stroke-width:0.1"
       id="path14" /></g></svg>
